%FSLAX45Y45*%
G04 Gerber Fmt 4.5, Leading zero omitted, Abs format (unit mm)*
G04 Created by KiCad (PCBNEW (5.1.10)-1) date 2023-02-01 16:44:34*
%MOMM*%
%LPD*%
G01*
G04 APERTURE LIST*
%TA.AperFunction,Profile*%
%ADD10C,0.050000*%
%TD*%
%ADD11C,0.200000*%
%ADD12C,0.300000*%
G04 APERTURE END LIST*
D10*
X18542000Y-7874000D02*
X12700000Y-7874000D01*
X18542000Y-12446000D02*
X18542000Y-7874000D01*
X12700000Y-12446000D02*
X18542000Y-12446000D01*
X12700000Y-7874000D02*
X12700000Y-12446000D01*
D11*
X13223800Y-10048800D02*
X13293800Y-10118800D01*
X13293800Y-10048800D02*
X13223800Y-10118800D01*
X13223800Y-10556800D02*
X13293800Y-10626800D01*
X13293800Y-10556800D02*
X13223800Y-10626800D01*
X14011200Y-8270800D02*
X14081200Y-8340800D01*
X14081200Y-8270800D02*
X14011200Y-8340800D01*
X14011200Y-8778800D02*
X14081200Y-8848800D01*
X14081200Y-8778800D02*
X14011200Y-8848800D01*
X14011200Y-9109000D02*
X14081200Y-9179000D01*
X14081200Y-9109000D02*
X14011200Y-9179000D01*
X14011200Y-9617000D02*
X14081200Y-9687000D01*
X14081200Y-9617000D02*
X14011200Y-9687000D01*
X13308800Y-11226800D02*
G75*
G03*
X13308800Y-11226800I-50000J0D01*
G01*
X13308800Y-11726800D02*
G75*
G03*
X13308800Y-11726800I-50000J0D01*
G01*
X13588200Y-8839200D02*
G75*
G03*
X13588200Y-8839200I-50000J0D01*
G01*
X13588200Y-9093200D02*
G75*
G03*
X13588200Y-9093200I-50000J0D01*
G01*
X13842200Y-10109200D02*
G75*
G03*
X13842200Y-10109200I-50000J0D01*
G01*
X13842200Y-10363200D02*
G75*
G03*
X13842200Y-10363200I-50000J0D01*
G01*
X13842200Y-10617200D02*
G75*
G03*
X13842200Y-10617200I-50000J0D01*
G01*
X13842200Y-10871200D02*
G75*
G03*
X13842200Y-10871200I-50000J0D01*
G01*
X14578800Y-8305800D02*
G75*
G03*
X14578800Y-8305800I-50000J0D01*
G01*
X14578800Y-8559800D02*
G75*
G03*
X14578800Y-8559800I-50000J0D01*
G01*
X14578800Y-8813800D02*
G75*
G03*
X14578800Y-8813800I-50000J0D01*
G01*
X14578800Y-9067800D02*
G75*
G03*
X14578800Y-9067800I-50000J0D01*
G01*
X14578800Y-9321800D02*
G75*
G03*
X14578800Y-9321800I-50000J0D01*
G01*
X14578800Y-9575800D02*
G75*
G03*
X14578800Y-9575800I-50000J0D01*
G01*
X14578800Y-9829800D02*
G75*
G03*
X14578800Y-9829800I-50000J0D01*
G01*
X14578800Y-10083800D02*
G75*
G03*
X14578800Y-10083800I-50000J0D01*
G01*
X14578800Y-10337800D02*
G75*
G03*
X14578800Y-10337800I-50000J0D01*
G01*
X14578800Y-10591800D02*
G75*
G03*
X14578800Y-10591800I-50000J0D01*
G01*
X14578800Y-10845800D02*
G75*
G03*
X14578800Y-10845800I-50000J0D01*
G01*
X14578800Y-11099800D02*
G75*
G03*
X14578800Y-11099800I-50000J0D01*
G01*
X14578800Y-11353800D02*
G75*
G03*
X14578800Y-11353800I-50000J0D01*
G01*
X14578800Y-11607800D02*
G75*
G03*
X14578800Y-11607800I-50000J0D01*
G01*
X16687000Y-8305800D02*
G75*
G03*
X16687000Y-8305800I-50000J0D01*
G01*
X16687000Y-8559800D02*
G75*
G03*
X16687000Y-8559800I-50000J0D01*
G01*
X16687000Y-8813800D02*
G75*
G03*
X16687000Y-8813800I-50000J0D01*
G01*
X16687000Y-9067800D02*
G75*
G03*
X16687000Y-9067800I-50000J0D01*
G01*
X16687000Y-9321800D02*
G75*
G03*
X16687000Y-9321800I-50000J0D01*
G01*
X16687000Y-9575800D02*
G75*
G03*
X16687000Y-9575800I-50000J0D01*
G01*
X16687000Y-9829800D02*
G75*
G03*
X16687000Y-9829800I-50000J0D01*
G01*
X16687000Y-10083800D02*
G75*
G03*
X16687000Y-10083800I-50000J0D01*
G01*
X16687000Y-10337800D02*
G75*
G03*
X16687000Y-10337800I-50000J0D01*
G01*
X16687000Y-10591800D02*
G75*
G03*
X16687000Y-10591800I-50000J0D01*
G01*
X16687000Y-10845800D02*
G75*
G03*
X16687000Y-10845800I-50000J0D01*
G01*
X16687000Y-11099800D02*
G75*
G03*
X16687000Y-11099800I-50000J0D01*
G01*
X16687000Y-11353800D02*
G75*
G03*
X16687000Y-11353800I-50000J0D01*
G01*
X16687000Y-11607800D02*
G75*
G03*
X16687000Y-11607800I-50000J0D01*
G01*
X17753800Y-8407400D02*
G75*
G03*
X17753800Y-8407400I-50000J0D01*
G01*
X17753800Y-8661400D02*
G75*
G03*
X17753800Y-8661400I-50000J0D01*
G01*
X17753800Y-8915400D02*
G75*
G03*
X17753800Y-8915400I-50000J0D01*
G01*
X17753800Y-9169400D02*
G75*
G03*
X17753800Y-9169400I-50000J0D01*
G01*
X17753800Y-9779000D02*
G75*
G03*
X17753800Y-9779000I-50000J0D01*
G01*
X17753800Y-10033000D02*
G75*
G03*
X17753800Y-10033000I-50000J0D01*
G01*
X17753800Y-10287000D02*
G75*
G03*
X17753800Y-10287000I-50000J0D01*
G01*
X17753800Y-10541000D02*
G75*
G03*
X17753800Y-10541000I-50000J0D01*
G01*
X17753800Y-10795000D02*
G75*
G03*
X17753800Y-10795000I-50000J0D01*
G01*
X17753800Y-11049000D02*
G75*
G03*
X17753800Y-11049000I-50000J0D01*
G01*
X17753800Y-11303000D02*
G75*
G03*
X17753800Y-11303000I-50000J0D01*
G01*
X17753800Y-11557000D02*
G75*
G03*
X17753800Y-11557000I-50000J0D01*
G01*
D12*
X12983928Y-12914214D02*
X12983928Y-12614214D01*
X13055357Y-12614214D01*
X13098214Y-12628500D01*
X13126786Y-12657071D01*
X13141071Y-12685643D01*
X13155357Y-12742786D01*
X13155357Y-12785643D01*
X13141071Y-12842786D01*
X13126786Y-12871357D01*
X13098214Y-12899929D01*
X13055357Y-12914214D01*
X12983928Y-12914214D01*
X13283928Y-12914214D02*
X13283928Y-12714214D01*
X13283928Y-12771357D02*
X13298214Y-12742786D01*
X13312500Y-12728500D01*
X13341071Y-12714214D01*
X13369643Y-12714214D01*
X13469643Y-12914214D02*
X13469643Y-12714214D01*
X13469643Y-12614214D02*
X13455357Y-12628500D01*
X13469643Y-12642786D01*
X13483928Y-12628500D01*
X13469643Y-12614214D01*
X13469643Y-12642786D01*
X13655357Y-12914214D02*
X13626786Y-12899929D01*
X13612500Y-12871357D01*
X13612500Y-12614214D01*
X13812500Y-12914214D02*
X13783928Y-12899929D01*
X13769643Y-12871357D01*
X13769643Y-12614214D01*
X14155357Y-12914214D02*
X14155357Y-12614214D01*
X14255357Y-12828500D01*
X14355357Y-12614214D01*
X14355357Y-12914214D01*
X14626786Y-12914214D02*
X14626786Y-12757071D01*
X14612500Y-12728500D01*
X14583928Y-12714214D01*
X14526786Y-12714214D01*
X14498214Y-12728500D01*
X14626786Y-12899929D02*
X14598214Y-12914214D01*
X14526786Y-12914214D01*
X14498214Y-12899929D01*
X14483928Y-12871357D01*
X14483928Y-12842786D01*
X14498214Y-12814214D01*
X14526786Y-12799929D01*
X14598214Y-12799929D01*
X14626786Y-12785643D01*
X14769643Y-12714214D02*
X14769643Y-13014214D01*
X14769643Y-12728500D02*
X14798214Y-12714214D01*
X14855357Y-12714214D01*
X14883928Y-12728500D01*
X14898214Y-12742786D01*
X14912500Y-12771357D01*
X14912500Y-12857071D01*
X14898214Y-12885643D01*
X14883928Y-12899929D01*
X14855357Y-12914214D01*
X14798214Y-12914214D01*
X14769643Y-12899929D01*
X15041071Y-12885643D02*
X15055357Y-12899929D01*
X15041071Y-12914214D01*
X15026786Y-12899929D01*
X15041071Y-12885643D01*
X15041071Y-12914214D01*
X15041071Y-12728500D02*
X15055357Y-12742786D01*
X15041071Y-12757071D01*
X15026786Y-12742786D01*
X15041071Y-12728500D01*
X15041071Y-12757071D01*
X12627500Y-13373500D02*
X12697500Y-13443500D01*
X12697500Y-13373500D02*
X12627500Y-13443500D01*
X13041071Y-13244214D02*
X13069643Y-13244214D01*
X13098214Y-13258500D01*
X13112500Y-13272786D01*
X13126786Y-13301357D01*
X13141071Y-13358500D01*
X13141071Y-13429929D01*
X13126786Y-13487071D01*
X13112500Y-13515643D01*
X13098214Y-13529929D01*
X13069643Y-13544214D01*
X13041071Y-13544214D01*
X13012500Y-13529929D01*
X12998214Y-13515643D01*
X12983928Y-13487071D01*
X12969643Y-13429929D01*
X12969643Y-13358500D01*
X12983928Y-13301357D01*
X12998214Y-13272786D01*
X13012500Y-13258500D01*
X13041071Y-13244214D01*
X13269643Y-13515643D02*
X13283928Y-13529929D01*
X13269643Y-13544214D01*
X13255357Y-13529929D01*
X13269643Y-13515643D01*
X13269643Y-13544214D01*
X13383928Y-13244214D02*
X13583928Y-13244214D01*
X13455357Y-13544214D01*
X13755357Y-13244214D02*
X13783928Y-13244214D01*
X13812500Y-13258500D01*
X13826786Y-13272786D01*
X13841071Y-13301357D01*
X13855357Y-13358500D01*
X13855357Y-13429929D01*
X13841071Y-13487071D01*
X13826786Y-13515643D01*
X13812500Y-13529929D01*
X13783928Y-13544214D01*
X13755357Y-13544214D01*
X13726786Y-13529929D01*
X13712500Y-13515643D01*
X13698214Y-13487071D01*
X13683928Y-13429929D01*
X13683928Y-13358500D01*
X13698214Y-13301357D01*
X13712500Y-13272786D01*
X13726786Y-13258500D01*
X13755357Y-13244214D01*
X14041071Y-13244214D02*
X14069643Y-13244214D01*
X14098214Y-13258500D01*
X14112500Y-13272786D01*
X14126786Y-13301357D01*
X14141071Y-13358500D01*
X14141071Y-13429929D01*
X14126786Y-13487071D01*
X14112500Y-13515643D01*
X14098214Y-13529929D01*
X14069643Y-13544214D01*
X14041071Y-13544214D01*
X14012500Y-13529929D01*
X13998214Y-13515643D01*
X13983928Y-13487071D01*
X13969643Y-13429929D01*
X13969643Y-13358500D01*
X13983928Y-13301357D01*
X13998214Y-13272786D01*
X14012500Y-13258500D01*
X14041071Y-13244214D01*
X14269643Y-13544214D02*
X14269643Y-13344214D01*
X14269643Y-13372786D02*
X14283928Y-13358500D01*
X14312500Y-13344214D01*
X14355357Y-13344214D01*
X14383928Y-13358500D01*
X14398214Y-13387071D01*
X14398214Y-13544214D01*
X14398214Y-13387071D02*
X14412500Y-13358500D01*
X14441071Y-13344214D01*
X14483928Y-13344214D01*
X14512500Y-13358500D01*
X14526786Y-13387071D01*
X14526786Y-13544214D01*
X14669643Y-13544214D02*
X14669643Y-13344214D01*
X14669643Y-13372786D02*
X14683928Y-13358500D01*
X14712500Y-13344214D01*
X14755357Y-13344214D01*
X14783928Y-13358500D01*
X14798214Y-13387071D01*
X14798214Y-13544214D01*
X14798214Y-13387071D02*
X14812500Y-13358500D01*
X14841071Y-13344214D01*
X14883928Y-13344214D01*
X14912500Y-13358500D01*
X14926786Y-13387071D01*
X14926786Y-13544214D01*
X15512500Y-13229929D02*
X15255357Y-13615643D01*
X15898214Y-13244214D02*
X15926786Y-13244214D01*
X15955357Y-13258500D01*
X15969643Y-13272786D01*
X15983928Y-13301357D01*
X15998214Y-13358500D01*
X15998214Y-13429929D01*
X15983928Y-13487071D01*
X15969643Y-13515643D01*
X15955357Y-13529929D01*
X15926786Y-13544214D01*
X15898214Y-13544214D01*
X15869643Y-13529929D01*
X15855357Y-13515643D01*
X15841071Y-13487071D01*
X15826786Y-13429929D01*
X15826786Y-13358500D01*
X15841071Y-13301357D01*
X15855357Y-13272786D01*
X15869643Y-13258500D01*
X15898214Y-13244214D01*
X16126786Y-13515643D02*
X16141071Y-13529929D01*
X16126786Y-13544214D01*
X16112500Y-13529929D01*
X16126786Y-13515643D01*
X16126786Y-13544214D01*
X16326786Y-13244214D02*
X16355357Y-13244214D01*
X16383928Y-13258500D01*
X16398214Y-13272786D01*
X16412500Y-13301357D01*
X16426786Y-13358500D01*
X16426786Y-13429929D01*
X16412500Y-13487071D01*
X16398214Y-13515643D01*
X16383928Y-13529929D01*
X16355357Y-13544214D01*
X16326786Y-13544214D01*
X16298214Y-13529929D01*
X16283928Y-13515643D01*
X16269643Y-13487071D01*
X16255357Y-13429929D01*
X16255357Y-13358500D01*
X16269643Y-13301357D01*
X16283928Y-13272786D01*
X16298214Y-13258500D01*
X16326786Y-13244214D01*
X16541071Y-13272786D02*
X16555357Y-13258500D01*
X16583928Y-13244214D01*
X16655357Y-13244214D01*
X16683928Y-13258500D01*
X16698214Y-13272786D01*
X16712500Y-13301357D01*
X16712500Y-13329929D01*
X16698214Y-13372786D01*
X16526786Y-13544214D01*
X16712500Y-13544214D01*
X16812500Y-13244214D02*
X17012500Y-13244214D01*
X16883928Y-13544214D01*
X17255357Y-13244214D02*
X17198214Y-13244214D01*
X17169643Y-13258500D01*
X17155357Y-13272786D01*
X17126786Y-13315643D01*
X17112500Y-13372786D01*
X17112500Y-13487071D01*
X17126786Y-13515643D01*
X17141071Y-13529929D01*
X17169643Y-13544214D01*
X17226786Y-13544214D01*
X17255357Y-13529929D01*
X17269643Y-13515643D01*
X17283928Y-13487071D01*
X17283928Y-13415643D01*
X17269643Y-13387071D01*
X17255357Y-13372786D01*
X17226786Y-13358500D01*
X17169643Y-13358500D01*
X17141071Y-13372786D01*
X17126786Y-13387071D01*
X17112500Y-13415643D01*
X17398214Y-13244214D02*
X17398214Y-13301357D01*
X17512500Y-13244214D02*
X17512500Y-13301357D01*
X17955357Y-13658500D02*
X17941071Y-13644214D01*
X17912500Y-13601357D01*
X17898214Y-13572786D01*
X17883928Y-13529929D01*
X17869643Y-13458500D01*
X17869643Y-13401357D01*
X17883928Y-13329929D01*
X17898214Y-13287071D01*
X17912500Y-13258500D01*
X17941071Y-13215643D01*
X17955357Y-13201357D01*
X18198214Y-13244214D02*
X18141071Y-13244214D01*
X18112500Y-13258500D01*
X18098214Y-13272786D01*
X18069643Y-13315643D01*
X18055357Y-13372786D01*
X18055357Y-13487071D01*
X18069643Y-13515643D01*
X18083928Y-13529929D01*
X18112500Y-13544214D01*
X18169643Y-13544214D01*
X18198214Y-13529929D01*
X18212500Y-13515643D01*
X18226786Y-13487071D01*
X18226786Y-13415643D01*
X18212500Y-13387071D01*
X18198214Y-13372786D01*
X18169643Y-13358500D01*
X18112500Y-13358500D01*
X18083928Y-13372786D01*
X18069643Y-13387071D01*
X18055357Y-13415643D01*
X18583928Y-13544214D02*
X18583928Y-13244214D01*
X18712500Y-13544214D02*
X18712500Y-13387071D01*
X18698214Y-13358500D01*
X18669643Y-13344214D01*
X18626786Y-13344214D01*
X18598214Y-13358500D01*
X18583928Y-13372786D01*
X18898214Y-13544214D02*
X18869643Y-13529929D01*
X18855357Y-13515643D01*
X18841071Y-13487071D01*
X18841071Y-13401357D01*
X18855357Y-13372786D01*
X18869643Y-13358500D01*
X18898214Y-13344214D01*
X18941071Y-13344214D01*
X18969643Y-13358500D01*
X18983928Y-13372786D01*
X18998214Y-13401357D01*
X18998214Y-13487071D01*
X18983928Y-13515643D01*
X18969643Y-13529929D01*
X18941071Y-13544214D01*
X18898214Y-13544214D01*
X19169643Y-13544214D02*
X19141071Y-13529929D01*
X19126786Y-13501357D01*
X19126786Y-13244214D01*
X19398214Y-13529929D02*
X19369643Y-13544214D01*
X19312500Y-13544214D01*
X19283928Y-13529929D01*
X19269643Y-13501357D01*
X19269643Y-13387071D01*
X19283928Y-13358500D01*
X19312500Y-13344214D01*
X19369643Y-13344214D01*
X19398214Y-13358500D01*
X19412500Y-13387071D01*
X19412500Y-13415643D01*
X19269643Y-13444214D01*
X19526786Y-13529929D02*
X19555357Y-13544214D01*
X19612500Y-13544214D01*
X19641071Y-13529929D01*
X19655357Y-13501357D01*
X19655357Y-13487071D01*
X19641071Y-13458500D01*
X19612500Y-13444214D01*
X19569643Y-13444214D01*
X19541071Y-13429929D01*
X19526786Y-13401357D01*
X19526786Y-13387071D01*
X19541071Y-13358500D01*
X19569643Y-13344214D01*
X19612500Y-13344214D01*
X19641071Y-13358500D01*
X19755357Y-13658500D02*
X19769643Y-13644214D01*
X19798214Y-13601357D01*
X19812500Y-13572786D01*
X19826786Y-13529929D01*
X19841071Y-13458500D01*
X19841071Y-13401357D01*
X19826786Y-13329929D01*
X19812500Y-13287071D01*
X19798214Y-13258500D01*
X19769643Y-13215643D01*
X19755357Y-13201357D01*
X12697500Y-13804500D02*
G75*
G03*
X12697500Y-13804500I-50000J0D01*
G01*
X13141071Y-13940214D02*
X12969643Y-13940214D01*
X13055357Y-13940214D02*
X13055357Y-13640214D01*
X13026786Y-13683071D01*
X12998214Y-13711643D01*
X12969643Y-13725929D01*
X13269643Y-13911643D02*
X13283928Y-13925929D01*
X13269643Y-13940214D01*
X13255357Y-13925929D01*
X13269643Y-13911643D01*
X13269643Y-13940214D01*
X13469643Y-13640214D02*
X13498214Y-13640214D01*
X13526786Y-13654500D01*
X13541071Y-13668786D01*
X13555357Y-13697357D01*
X13569643Y-13754500D01*
X13569643Y-13825929D01*
X13555357Y-13883071D01*
X13541071Y-13911643D01*
X13526786Y-13925929D01*
X13498214Y-13940214D01*
X13469643Y-13940214D01*
X13441071Y-13925929D01*
X13426786Y-13911643D01*
X13412500Y-13883071D01*
X13398214Y-13825929D01*
X13398214Y-13754500D01*
X13412500Y-13697357D01*
X13426786Y-13668786D01*
X13441071Y-13654500D01*
X13469643Y-13640214D01*
X13755357Y-13640214D02*
X13783928Y-13640214D01*
X13812500Y-13654500D01*
X13826786Y-13668786D01*
X13841071Y-13697357D01*
X13855357Y-13754500D01*
X13855357Y-13825929D01*
X13841071Y-13883071D01*
X13826786Y-13911643D01*
X13812500Y-13925929D01*
X13783928Y-13940214D01*
X13755357Y-13940214D01*
X13726786Y-13925929D01*
X13712500Y-13911643D01*
X13698214Y-13883071D01*
X13683928Y-13825929D01*
X13683928Y-13754500D01*
X13698214Y-13697357D01*
X13712500Y-13668786D01*
X13726786Y-13654500D01*
X13755357Y-13640214D01*
X14041071Y-13640214D02*
X14069643Y-13640214D01*
X14098214Y-13654500D01*
X14112500Y-13668786D01*
X14126786Y-13697357D01*
X14141071Y-13754500D01*
X14141071Y-13825929D01*
X14126786Y-13883071D01*
X14112500Y-13911643D01*
X14098214Y-13925929D01*
X14069643Y-13940214D01*
X14041071Y-13940214D01*
X14012500Y-13925929D01*
X13998214Y-13911643D01*
X13983928Y-13883071D01*
X13969643Y-13825929D01*
X13969643Y-13754500D01*
X13983928Y-13697357D01*
X13998214Y-13668786D01*
X14012500Y-13654500D01*
X14041071Y-13640214D01*
X14269643Y-13940214D02*
X14269643Y-13740214D01*
X14269643Y-13768786D02*
X14283928Y-13754500D01*
X14312500Y-13740214D01*
X14355357Y-13740214D01*
X14383928Y-13754500D01*
X14398214Y-13783071D01*
X14398214Y-13940214D01*
X14398214Y-13783071D02*
X14412500Y-13754500D01*
X14441071Y-13740214D01*
X14483928Y-13740214D01*
X14512500Y-13754500D01*
X14526786Y-13783071D01*
X14526786Y-13940214D01*
X14669643Y-13940214D02*
X14669643Y-13740214D01*
X14669643Y-13768786D02*
X14683928Y-13754500D01*
X14712500Y-13740214D01*
X14755357Y-13740214D01*
X14783928Y-13754500D01*
X14798214Y-13783071D01*
X14798214Y-13940214D01*
X14798214Y-13783071D02*
X14812500Y-13754500D01*
X14841071Y-13740214D01*
X14883928Y-13740214D01*
X14912500Y-13754500D01*
X14926786Y-13783071D01*
X14926786Y-13940214D01*
X15512500Y-13625929D02*
X15255357Y-14011643D01*
X15898214Y-13640214D02*
X15926786Y-13640214D01*
X15955357Y-13654500D01*
X15969643Y-13668786D01*
X15983928Y-13697357D01*
X15998214Y-13754500D01*
X15998214Y-13825929D01*
X15983928Y-13883071D01*
X15969643Y-13911643D01*
X15955357Y-13925929D01*
X15926786Y-13940214D01*
X15898214Y-13940214D01*
X15869643Y-13925929D01*
X15855357Y-13911643D01*
X15841071Y-13883071D01*
X15826786Y-13825929D01*
X15826786Y-13754500D01*
X15841071Y-13697357D01*
X15855357Y-13668786D01*
X15869643Y-13654500D01*
X15898214Y-13640214D01*
X16126786Y-13911643D02*
X16141071Y-13925929D01*
X16126786Y-13940214D01*
X16112500Y-13925929D01*
X16126786Y-13911643D01*
X16126786Y-13940214D01*
X16326786Y-13640214D02*
X16355357Y-13640214D01*
X16383928Y-13654500D01*
X16398214Y-13668786D01*
X16412500Y-13697357D01*
X16426786Y-13754500D01*
X16426786Y-13825929D01*
X16412500Y-13883071D01*
X16398214Y-13911643D01*
X16383928Y-13925929D01*
X16355357Y-13940214D01*
X16326786Y-13940214D01*
X16298214Y-13925929D01*
X16283928Y-13911643D01*
X16269643Y-13883071D01*
X16255357Y-13825929D01*
X16255357Y-13754500D01*
X16269643Y-13697357D01*
X16283928Y-13668786D01*
X16298214Y-13654500D01*
X16326786Y-13640214D01*
X16526786Y-13640214D02*
X16712500Y-13640214D01*
X16612500Y-13754500D01*
X16655357Y-13754500D01*
X16683928Y-13768786D01*
X16698214Y-13783071D01*
X16712500Y-13811643D01*
X16712500Y-13883071D01*
X16698214Y-13911643D01*
X16683928Y-13925929D01*
X16655357Y-13940214D01*
X16569643Y-13940214D01*
X16541071Y-13925929D01*
X16526786Y-13911643D01*
X16855357Y-13940214D02*
X16912500Y-13940214D01*
X16941071Y-13925929D01*
X16955357Y-13911643D01*
X16983928Y-13868786D01*
X16998214Y-13811643D01*
X16998214Y-13697357D01*
X16983928Y-13668786D01*
X16969643Y-13654500D01*
X16941071Y-13640214D01*
X16883928Y-13640214D01*
X16855357Y-13654500D01*
X16841071Y-13668786D01*
X16826786Y-13697357D01*
X16826786Y-13768786D01*
X16841071Y-13797357D01*
X16855357Y-13811643D01*
X16883928Y-13825929D01*
X16941071Y-13825929D01*
X16969643Y-13811643D01*
X16983928Y-13797357D01*
X16998214Y-13768786D01*
X17255357Y-13740214D02*
X17255357Y-13940214D01*
X17183928Y-13625929D02*
X17112500Y-13840214D01*
X17298214Y-13840214D01*
X17398214Y-13640214D02*
X17398214Y-13697357D01*
X17512500Y-13640214D02*
X17512500Y-13697357D01*
X17955357Y-14054500D02*
X17941071Y-14040214D01*
X17912500Y-13997357D01*
X17898214Y-13968786D01*
X17883928Y-13925929D01*
X17869643Y-13854500D01*
X17869643Y-13797357D01*
X17883928Y-13725929D01*
X17898214Y-13683071D01*
X17912500Y-13654500D01*
X17941071Y-13611643D01*
X17955357Y-13597357D01*
X18198214Y-13740214D02*
X18198214Y-13940214D01*
X18126786Y-13625929D02*
X18055357Y-13840214D01*
X18241071Y-13840214D01*
X18398214Y-13768786D02*
X18369643Y-13754500D01*
X18355357Y-13740214D01*
X18341071Y-13711643D01*
X18341071Y-13697357D01*
X18355357Y-13668786D01*
X18369643Y-13654500D01*
X18398214Y-13640214D01*
X18455357Y-13640214D01*
X18483928Y-13654500D01*
X18498214Y-13668786D01*
X18512500Y-13697357D01*
X18512500Y-13711643D01*
X18498214Y-13740214D01*
X18483928Y-13754500D01*
X18455357Y-13768786D01*
X18398214Y-13768786D01*
X18369643Y-13783071D01*
X18355357Y-13797357D01*
X18341071Y-13825929D01*
X18341071Y-13883071D01*
X18355357Y-13911643D01*
X18369643Y-13925929D01*
X18398214Y-13940214D01*
X18455357Y-13940214D01*
X18483928Y-13925929D01*
X18498214Y-13911643D01*
X18512500Y-13883071D01*
X18512500Y-13825929D01*
X18498214Y-13797357D01*
X18483928Y-13783071D01*
X18455357Y-13768786D01*
X18869643Y-13940214D02*
X18869643Y-13640214D01*
X18998214Y-13940214D02*
X18998214Y-13783071D01*
X18983928Y-13754500D01*
X18955357Y-13740214D01*
X18912500Y-13740214D01*
X18883928Y-13754500D01*
X18869643Y-13768786D01*
X19183928Y-13940214D02*
X19155357Y-13925929D01*
X19141071Y-13911643D01*
X19126786Y-13883071D01*
X19126786Y-13797357D01*
X19141071Y-13768786D01*
X19155357Y-13754500D01*
X19183928Y-13740214D01*
X19226786Y-13740214D01*
X19255357Y-13754500D01*
X19269643Y-13768786D01*
X19283928Y-13797357D01*
X19283928Y-13883071D01*
X19269643Y-13911643D01*
X19255357Y-13925929D01*
X19226786Y-13940214D01*
X19183928Y-13940214D01*
X19455357Y-13940214D02*
X19426786Y-13925929D01*
X19412500Y-13897357D01*
X19412500Y-13640214D01*
X19683928Y-13925929D02*
X19655357Y-13940214D01*
X19598214Y-13940214D01*
X19569643Y-13925929D01*
X19555357Y-13897357D01*
X19555357Y-13783071D01*
X19569643Y-13754500D01*
X19598214Y-13740214D01*
X19655357Y-13740214D01*
X19683928Y-13754500D01*
X19698214Y-13783071D01*
X19698214Y-13811643D01*
X19555357Y-13840214D01*
X19812500Y-13925929D02*
X19841071Y-13940214D01*
X19898214Y-13940214D01*
X19926786Y-13925929D01*
X19941071Y-13897357D01*
X19941071Y-13883071D01*
X19926786Y-13854500D01*
X19898214Y-13840214D01*
X19855357Y-13840214D01*
X19826786Y-13825929D01*
X19812500Y-13797357D01*
X19812500Y-13783071D01*
X19826786Y-13754500D01*
X19855357Y-13740214D01*
X19898214Y-13740214D01*
X19926786Y-13754500D01*
X20041071Y-14054500D02*
X20055357Y-14040214D01*
X20083928Y-13997357D01*
X20098214Y-13968786D01*
X20112500Y-13925929D01*
X20126786Y-13854500D01*
X20126786Y-13797357D01*
X20112500Y-13725929D01*
X20098214Y-13683071D01*
X20083928Y-13654500D01*
X20055357Y-13611643D01*
X20041071Y-13597357D01*
M02*
