M48
; DRILL file {KiCad (5.1.10)-1} date 02/01/23 16:44:35
; FORMAT={-:-/ absolute / metric / decimal}
; #@! TF.CreationDate,2023-02-01T16:44:35+01:00
; #@! TF.GenerationSoftware,Kicad,Pcbnew,(5.1.10)-1
FMAT,2
METRIC
T1C0.700
T2C1.000
%
G90
G05
T1
X132.588Y-100.838
X132.588Y-105.918
X140.462Y-83.058
X140.462Y-88.138
X140.462Y-91.44
X140.462Y-96.52
T2
X132.588Y-112.268
X132.588Y-117.268
X135.382Y-88.392
X135.382Y-90.932
X137.922Y-101.092
X137.922Y-103.632
X137.922Y-106.172
X137.922Y-108.712
X145.288Y-83.058
X145.288Y-85.598
X145.288Y-88.138
X145.288Y-90.678
X145.288Y-93.218
X145.288Y-95.758
X145.288Y-98.298
X145.288Y-100.838
X145.288Y-103.378
X145.288Y-105.918
X145.288Y-108.458
X145.288Y-110.998
X145.288Y-113.538
X145.288Y-116.078
X166.37Y-83.058
X166.37Y-85.598
X166.37Y-88.138
X166.37Y-90.678
X166.37Y-93.218
X166.37Y-95.758
X166.37Y-98.298
X166.37Y-100.838
X166.37Y-103.378
X166.37Y-105.918
X166.37Y-108.458
X166.37Y-110.998
X166.37Y-113.538
X166.37Y-116.078
X177.038Y-84.074
X177.038Y-86.614
X177.038Y-89.154
X177.038Y-91.694
X177.038Y-97.79
X177.038Y-100.33
X177.038Y-102.87
X177.038Y-105.41
X177.038Y-107.95
X177.038Y-110.49
X177.038Y-113.03
X177.038Y-115.57
T0
M30
