%TF.GenerationSoftware,KiCad,Pcbnew,(5.1.10)-1*%
%TF.CreationDate,2023-02-01T16:44:39+01:00*%
%TF.ProjectId,pcb_projet,7063625f-7072-46f6-9a65-742e6b696361,rev?*%
%TF.SameCoordinates,Original*%
%TF.FileFunction,Copper,L2,Bot*%
%TF.FilePolarity,Positive*%
%FSLAX46Y46*%
G04 Gerber Fmt 4.6, Leading zero omitted, Abs format (unit mm)*
G04 Created by KiCad (PCBNEW (5.1.10)-1) date 2023-02-01 16:44:39*
%MOMM*%
%LPD*%
G01*
G04 APERTURE LIST*
%TA.AperFunction,ComponentPad*%
%ADD10O,1.700000X1.700000*%
%TD*%
%TA.AperFunction,ComponentPad*%
%ADD11O,1.100000X1.100000*%
%TD*%
%TA.AperFunction,ComponentPad*%
%ADD12R,1.700000X1.700000*%
%TD*%
%TA.AperFunction,ComponentPad*%
%ADD13O,1.400000X1.400000*%
%TD*%
%TA.AperFunction,ComponentPad*%
%ADD14C,1.400000*%
%TD*%
%TA.AperFunction,ComponentPad*%
%ADD15C,2.000000*%
%TD*%
%TA.AperFunction,Conductor*%
%ADD16C,0.500000*%
%TD*%
%TA.AperFunction,Conductor*%
%ADD17C,1.000000*%
%TD*%
%TA.AperFunction,Conductor*%
%ADD18C,0.254000*%
%TD*%
%TA.AperFunction,Conductor*%
%ADD19C,0.100000*%
%TD*%
G04 APERTURE END LIST*
D10*
%TO.P,J2,14*%
%TO.N,D6*%
X166370000Y-116078000D03*
%TO.P,J2,13*%
%TO.N,D7*%
X166370000Y-113538000D03*
%TO.P,J2,12*%
%TO.N,D8*%
X166370000Y-110998000D03*
D11*
%TO.P,J2,11*%
%TO.N,D9*%
X166370000Y-108458000D03*
%TO.P,J2,10*%
%TO.N,D10*%
X166370000Y-105918000D03*
D10*
%TO.P,J2,9*%
%TO.N,D11*%
X166370000Y-103378000D03*
%TO.P,J2,8*%
%TO.N,D12*%
X166370000Y-100838000D03*
%TO.P,J2,7*%
%TO.N,D13-RX*%
X166370000Y-98298000D03*
%TO.P,J2,6*%
%TO.N,D14-TX*%
X166370000Y-95758000D03*
D11*
%TO.P,J2,5*%
%TO.N,RESET*%
X166370000Y-93218000D03*
D10*
%TO.P,J2,4*%
%TO.N,GND*%
X166370000Y-90678000D03*
%TO.P,J2,3*%
%TO.N,VCC(3.3V)*%
X166370000Y-88138000D03*
%TO.P,J2,2*%
%TO.N,VIN*%
X166370000Y-85598000D03*
D12*
%TO.P,J2,1*%
%TO.N,+5V*%
X166370000Y-83058000D03*
%TD*%
D10*
%TO.P,J3,14*%
%TO.N,D5*%
X145288000Y-116078000D03*
%TO.P,J3,13*%
%TO.N,D4*%
X145288000Y-113538000D03*
D11*
%TO.P,J3,12*%
%TO.N,D3*%
X145288000Y-110998000D03*
%TO.P,J3,11*%
%TO.N,D2*%
X145288000Y-108458000D03*
D10*
%TO.P,J3,10*%
%TO.N,D1*%
X145288000Y-105918000D03*
%TO.P,J3,9*%
%TO.N,D0*%
X145288000Y-103378000D03*
%TO.P,J3,8*%
%TO.N,A6*%
X145288000Y-100838000D03*
%TO.P,J3,7*%
%TO.N,A5*%
X145288000Y-98298000D03*
D11*
%TO.P,J3,6*%
%TO.N,A4*%
X145288000Y-95758000D03*
%TO.P,J3,5*%
%TO.N,A3*%
X145288000Y-93218000D03*
D10*
%TO.P,J3,4*%
%TO.N,A2*%
X145288000Y-90678000D03*
%TO.P,J3,3*%
%TO.N,A1*%
X145288000Y-88138000D03*
%TO.P,J3,2*%
%TO.N,A0*%
X145288000Y-85598000D03*
D12*
%TO.P,J3,1*%
%TO.N,AREF*%
X145288000Y-83058000D03*
%TD*%
D10*
%TO.P,J6,2*%
%TO.N,Net-(J6-Pad2)*%
X135382000Y-90932000D03*
D12*
%TO.P,J6,1*%
%TO.N,Net-(J6-Pad1)*%
X135382000Y-88392000D03*
%TD*%
D10*
%TO.P,J4,4*%
%TO.N,D12*%
X177038000Y-91694000D03*
%TO.P,J4,3*%
%TO.N,D11*%
X177038000Y-89154000D03*
%TO.P,J4,2*%
%TO.N,GND*%
X177038000Y-86614000D03*
D12*
%TO.P,J4,1*%
%TO.N,VCC(3.3V)*%
X177038000Y-84074000D03*
%TD*%
D10*
%TO.P,J5,8*%
%TO.N,GND*%
X177038000Y-97790000D03*
%TO.P,J5,7*%
%TO.N,VCC(3.3V)*%
X177038000Y-100330000D03*
%TO.P,J5,6*%
%TO.N,Net-(J5-Pad6)*%
X177038000Y-102870000D03*
%TO.P,J5,5*%
%TO.N,Net-(J5-Pad5)*%
X177038000Y-105410000D03*
%TO.P,J5,4*%
%TO.N,Net-(J5-Pad4)*%
X177038000Y-107950000D03*
%TO.P,J5,3*%
%TO.N,Net-(J5-Pad3)*%
X177038000Y-110490000D03*
%TO.P,J5,2*%
%TO.N,D14-TX*%
X177038000Y-113030000D03*
D12*
%TO.P,J5,1*%
%TO.N,D13-RX*%
X177038000Y-115570000D03*
%TD*%
D13*
%TO.P,R3,2*%
%TO.N,A1*%
X140462000Y-91440000D03*
D14*
%TO.P,R3,1*%
%TO.N,Net-(J6-Pad2)*%
X140462000Y-96520000D03*
%TD*%
D13*
%TO.P,R2,2*%
%TO.N,Net-(J6-Pad1)*%
X140462000Y-83058000D03*
D14*
%TO.P,R2,1*%
%TO.N,A1*%
X140462000Y-88138000D03*
%TD*%
D13*
%TO.P,R1,2*%
%TO.N,D4*%
X132588000Y-100838000D03*
D14*
%TO.P,R1,1*%
%TO.N,VCC(3.3V)*%
X132588000Y-105918000D03*
%TD*%
D10*
%TO.P,J1,4*%
%TO.N,GND*%
X137922000Y-101092000D03*
%TO.P,J1,3*%
%TO.N,Net-(J1-Pad3)*%
X137922000Y-103632000D03*
%TO.P,J1,2*%
%TO.N,D4*%
X137922000Y-106172000D03*
D12*
%TO.P,J1,1*%
%TO.N,VCC(3.3V)*%
X137922000Y-108712000D03*
%TD*%
D15*
%TO.P,C1,2*%
%TO.N,GND*%
X132588000Y-117268000D03*
%TO.P,C1,1*%
%TO.N,VCC(3.3V)*%
X132588000Y-112268000D03*
%TD*%
D16*
%TO.N,*%
X131572000Y-88392000D02*
X132588000Y-88392000D01*
X132080000Y-88138000D02*
X132080000Y-88646000D01*
X132080000Y-90932000D02*
X132080000Y-91567000D01*
X132080000Y-88392000D02*
X132080000Y-88900000D01*
X132080000Y-87884000D02*
X132080000Y-88392000D01*
D17*
%TO.N,D4*%
X133858000Y-100838000D02*
X132588000Y-100838000D01*
X134874000Y-101854000D02*
X133858000Y-100838000D01*
X134874000Y-104902000D02*
X134874000Y-101854000D01*
X136144000Y-106172000D02*
X134874000Y-104902000D01*
X137922000Y-106172000D02*
X136144000Y-106172000D01*
X145288000Y-113538000D02*
X142494000Y-113538000D01*
X142494000Y-113538000D02*
X141224000Y-112268000D01*
X141224000Y-112268000D02*
X141224000Y-106426000D01*
X140970000Y-106172000D02*
X137922000Y-106172000D01*
X141224000Y-106426000D02*
X140970000Y-106172000D01*
D16*
%TO.N,D11*%
X171450000Y-89154000D02*
X168625999Y-91978001D01*
X166370000Y-103378000D02*
X160020000Y-103378000D01*
X177038000Y-89154000D02*
X171450000Y-89154000D01*
X168625999Y-91978001D02*
X168402000Y-92202000D01*
X168402000Y-92202000D02*
X168386001Y-92217999D01*
X162067999Y-92217999D02*
X161274001Y-92217999D01*
X168386001Y-92217999D02*
X162067999Y-92217999D01*
X158877000Y-94615000D02*
X158877000Y-102235000D01*
X161274001Y-92217999D02*
X158877000Y-94615000D01*
X160020000Y-103378000D02*
X158877000Y-102235000D01*
%TO.N,D12*%
X161290000Y-100838000D02*
X166370000Y-100838000D01*
X160782000Y-100330000D02*
X161290000Y-100838000D01*
X160782000Y-94996000D02*
X160782000Y-100330000D01*
X161559999Y-94218001D02*
X160782000Y-94996000D01*
X167655999Y-94218001D02*
X161559999Y-94218001D01*
X170180000Y-91694000D02*
X167655999Y-94218001D01*
X177038000Y-91694000D02*
X170180000Y-91694000D01*
D17*
%TO.N,VCC(3.3V)*%
X177038000Y-84074000D02*
X172974000Y-84074000D01*
X168910000Y-88138000D02*
X166370000Y-88138000D01*
X172974000Y-84074000D02*
X168910000Y-88138000D01*
X153162000Y-88138000D02*
X166370000Y-88138000D01*
X148844000Y-92456000D02*
X153162000Y-88138000D01*
X148844000Y-117856000D02*
X148844000Y-92456000D01*
X147066000Y-119634000D02*
X148844000Y-117856000D01*
X142240000Y-119634000D02*
X147066000Y-119634000D01*
X132588000Y-108712000D02*
X132588000Y-112268000D01*
X137922000Y-108712000D02*
X132588000Y-108712000D01*
X132588000Y-105918000D02*
X132588000Y-108712000D01*
X137922000Y-115316000D02*
X142240000Y-119634000D01*
X137922000Y-108712000D02*
X137922000Y-115316000D01*
X177038000Y-100330000D02*
X179832000Y-100330000D01*
X179832000Y-100330000D02*
X182626000Y-97536000D01*
X182626000Y-97536000D02*
X182626000Y-86360000D01*
X180340000Y-84074000D02*
X177038000Y-84074000D01*
X182626000Y-86360000D02*
X180340000Y-84074000D01*
%TO.N,A1*%
X140462000Y-88138000D02*
X140462000Y-91440000D01*
X145288000Y-88138000D02*
X140462000Y-88138000D01*
%TO.N,D13-RX*%
X166370000Y-98298000D02*
X169164000Y-98298000D01*
X169164000Y-98298000D02*
X171450000Y-100584000D01*
X171450000Y-100584000D02*
X171450000Y-113538000D01*
X173482000Y-115570000D02*
X177038000Y-115570000D01*
X171450000Y-113538000D02*
X173482000Y-115570000D01*
%TO.N,D14-TX*%
X177038000Y-113030000D02*
X174498000Y-113030000D01*
X174498000Y-113030000D02*
X173482000Y-112014000D01*
X173482000Y-112014000D02*
X173482000Y-99568000D01*
X169672000Y-95758000D02*
X166370000Y-95758000D01*
X173482000Y-99568000D02*
X169672000Y-95758000D01*
%TO.N,Net-(J6-Pad2)*%
X135382000Y-90932000D02*
X135382000Y-94488000D01*
X137414000Y-96520000D02*
X140462000Y-96520000D01*
X135382000Y-94488000D02*
X137414000Y-96520000D01*
%TO.N,Net-(J6-Pad1)*%
X135382000Y-88392000D02*
X135382000Y-85344000D01*
X137668000Y-83058000D02*
X140462000Y-83058000D01*
X135382000Y-85344000D02*
X137668000Y-83058000D01*
%TD*%
D18*
%TO.N,GND*%
X184760000Y-123800000D02*
X127660000Y-123800000D01*
X127660000Y-118403413D01*
X131632192Y-118403413D01*
X131727956Y-118667814D01*
X132017571Y-118808704D01*
X132329108Y-118890384D01*
X132650595Y-118909718D01*
X132969675Y-118865961D01*
X133274088Y-118760795D01*
X133448044Y-118667814D01*
X133543808Y-118403413D01*
X132588000Y-117447605D01*
X131632192Y-118403413D01*
X127660000Y-118403413D01*
X127660000Y-117330595D01*
X130946282Y-117330595D01*
X130990039Y-117649675D01*
X131095205Y-117954088D01*
X131188186Y-118128044D01*
X131452587Y-118223808D01*
X132408395Y-117268000D01*
X132767605Y-117268000D01*
X133723413Y-118223808D01*
X133987814Y-118128044D01*
X134128704Y-117838429D01*
X134210384Y-117526892D01*
X134229718Y-117205405D01*
X134185961Y-116886325D01*
X134080795Y-116581912D01*
X133987814Y-116407956D01*
X133723413Y-116312192D01*
X132767605Y-117268000D01*
X132408395Y-117268000D01*
X131452587Y-116312192D01*
X131188186Y-116407956D01*
X131047296Y-116697571D01*
X130965616Y-117009108D01*
X130946282Y-117330595D01*
X127660000Y-117330595D01*
X127660000Y-116132587D01*
X131632192Y-116132587D01*
X132588000Y-117088395D01*
X133543808Y-116132587D01*
X133448044Y-115868186D01*
X133158429Y-115727296D01*
X132846892Y-115645616D01*
X132525405Y-115626282D01*
X132206325Y-115670039D01*
X131901912Y-115775205D01*
X131727956Y-115868186D01*
X131632192Y-116132587D01*
X127660000Y-116132587D01*
X127660000Y-112106967D01*
X130953000Y-112106967D01*
X130953000Y-112429033D01*
X131015832Y-112744912D01*
X131139082Y-113042463D01*
X131318013Y-113310252D01*
X131545748Y-113537987D01*
X131813537Y-113716918D01*
X132111088Y-113840168D01*
X132426967Y-113903000D01*
X132749033Y-113903000D01*
X133064912Y-113840168D01*
X133362463Y-113716918D01*
X133630252Y-113537987D01*
X133857987Y-113310252D01*
X134036918Y-113042463D01*
X134160168Y-112744912D01*
X134223000Y-112429033D01*
X134223000Y-112106967D01*
X134160168Y-111791088D01*
X134036918Y-111493537D01*
X133857987Y-111225748D01*
X133723000Y-111090761D01*
X133723000Y-109847000D01*
X136504317Y-109847000D01*
X136541463Y-109916494D01*
X136620815Y-110013185D01*
X136717506Y-110092537D01*
X136787000Y-110129683D01*
X136787001Y-115260239D01*
X136781509Y-115316000D01*
X136803423Y-115538498D01*
X136868324Y-115752446D01*
X136889733Y-115792499D01*
X136973717Y-115949623D01*
X137115552Y-116122449D01*
X137158860Y-116157991D01*
X141398009Y-120397141D01*
X141433551Y-120440449D01*
X141606377Y-120582284D01*
X141803553Y-120687676D01*
X141967705Y-120737471D01*
X142017500Y-120752577D01*
X142038493Y-120754644D01*
X142184248Y-120769000D01*
X142184255Y-120769000D01*
X142239999Y-120774490D01*
X142295743Y-120769000D01*
X147010249Y-120769000D01*
X147066000Y-120774491D01*
X147121751Y-120769000D01*
X147121752Y-120769000D01*
X147288499Y-120752577D01*
X147502447Y-120687676D01*
X147699623Y-120582284D01*
X147872449Y-120440449D01*
X147907995Y-120397136D01*
X149607146Y-118697987D01*
X149650449Y-118662449D01*
X149717848Y-118580324D01*
X149792284Y-118489623D01*
X149897676Y-118292447D01*
X149962577Y-118078499D01*
X149984491Y-117856000D01*
X149979000Y-117800248D01*
X149979000Y-110851740D01*
X164885000Y-110851740D01*
X164885000Y-111144260D01*
X164942068Y-111431158D01*
X165054010Y-111701411D01*
X165216525Y-111944632D01*
X165423368Y-112151475D01*
X165597760Y-112268000D01*
X165423368Y-112384525D01*
X165216525Y-112591368D01*
X165054010Y-112834589D01*
X164942068Y-113104842D01*
X164885000Y-113391740D01*
X164885000Y-113684260D01*
X164942068Y-113971158D01*
X165054010Y-114241411D01*
X165216525Y-114484632D01*
X165423368Y-114691475D01*
X165597760Y-114808000D01*
X165423368Y-114924525D01*
X165216525Y-115131368D01*
X165054010Y-115374589D01*
X164942068Y-115644842D01*
X164885000Y-115931740D01*
X164885000Y-116224260D01*
X164942068Y-116511158D01*
X165054010Y-116781411D01*
X165216525Y-117024632D01*
X165423368Y-117231475D01*
X165666589Y-117393990D01*
X165936842Y-117505932D01*
X166223740Y-117563000D01*
X166516260Y-117563000D01*
X166803158Y-117505932D01*
X167073411Y-117393990D01*
X167316632Y-117231475D01*
X167523475Y-117024632D01*
X167685990Y-116781411D01*
X167797932Y-116511158D01*
X167855000Y-116224260D01*
X167855000Y-115931740D01*
X167797932Y-115644842D01*
X167685990Y-115374589D01*
X167523475Y-115131368D01*
X167316632Y-114924525D01*
X167142240Y-114808000D01*
X167316632Y-114691475D01*
X167523475Y-114484632D01*
X167685990Y-114241411D01*
X167797932Y-113971158D01*
X167855000Y-113684260D01*
X167855000Y-113391740D01*
X167797932Y-113104842D01*
X167685990Y-112834589D01*
X167523475Y-112591368D01*
X167316632Y-112384525D01*
X167142240Y-112268000D01*
X167316632Y-112151475D01*
X167523475Y-111944632D01*
X167685990Y-111701411D01*
X167797932Y-111431158D01*
X167855000Y-111144260D01*
X167855000Y-110851740D01*
X167797932Y-110564842D01*
X167685990Y-110294589D01*
X167523475Y-110051368D01*
X167316632Y-109844525D01*
X167073411Y-109682010D01*
X166803158Y-109570068D01*
X166788719Y-109567196D01*
X166931308Y-109508134D01*
X167125394Y-109378450D01*
X167290450Y-109213394D01*
X167420134Y-109019308D01*
X167509461Y-108803652D01*
X167555000Y-108574712D01*
X167555000Y-108341288D01*
X167509461Y-108112348D01*
X167420134Y-107896692D01*
X167290450Y-107702606D01*
X167125394Y-107537550D01*
X166931308Y-107407866D01*
X166715652Y-107318539D01*
X166486712Y-107273000D01*
X166253288Y-107273000D01*
X166024348Y-107318539D01*
X165808692Y-107407866D01*
X165614606Y-107537550D01*
X165449550Y-107702606D01*
X165319866Y-107896692D01*
X165230539Y-108112348D01*
X165185000Y-108341288D01*
X165185000Y-108574712D01*
X165230539Y-108803652D01*
X165319866Y-109019308D01*
X165449550Y-109213394D01*
X165614606Y-109378450D01*
X165808692Y-109508134D01*
X165951281Y-109567196D01*
X165936842Y-109570068D01*
X165666589Y-109682010D01*
X165423368Y-109844525D01*
X165216525Y-110051368D01*
X165054010Y-110294589D01*
X164942068Y-110564842D01*
X164885000Y-110851740D01*
X149979000Y-110851740D01*
X149979000Y-92926131D01*
X153632132Y-89273000D01*
X165404893Y-89273000D01*
X165423368Y-89291475D01*
X165605534Y-89413195D01*
X165488645Y-89482822D01*
X165272412Y-89677731D01*
X165098359Y-89911080D01*
X164973175Y-90173901D01*
X164928524Y-90321110D01*
X165049845Y-90551000D01*
X166243000Y-90551000D01*
X166243000Y-90531000D01*
X166497000Y-90531000D01*
X166497000Y-90551000D01*
X167690155Y-90551000D01*
X167811476Y-90321110D01*
X167766825Y-90173901D01*
X167641641Y-89911080D01*
X167467588Y-89677731D01*
X167251355Y-89482822D01*
X167134466Y-89413195D01*
X167316632Y-89291475D01*
X167335107Y-89273000D01*
X168854249Y-89273000D01*
X168910000Y-89278491D01*
X168965751Y-89273000D01*
X168965752Y-89273000D01*
X169132499Y-89256577D01*
X169346447Y-89191676D01*
X169543623Y-89086284D01*
X169716449Y-88944449D01*
X169751996Y-88901135D01*
X173444132Y-85209000D01*
X175620317Y-85209000D01*
X175657463Y-85278494D01*
X175736815Y-85375185D01*
X175833506Y-85454537D01*
X175943820Y-85513502D01*
X176024466Y-85537966D01*
X175940412Y-85613731D01*
X175766359Y-85847080D01*
X175641175Y-86109901D01*
X175596524Y-86257110D01*
X175717845Y-86487000D01*
X176911000Y-86487000D01*
X176911000Y-86467000D01*
X177165000Y-86467000D01*
X177165000Y-86487000D01*
X178358155Y-86487000D01*
X178479476Y-86257110D01*
X178434825Y-86109901D01*
X178309641Y-85847080D01*
X178135588Y-85613731D01*
X178051534Y-85537966D01*
X178132180Y-85513502D01*
X178242494Y-85454537D01*
X178339185Y-85375185D01*
X178418537Y-85278494D01*
X178455683Y-85209000D01*
X179869869Y-85209000D01*
X181491001Y-86830133D01*
X181491000Y-97065867D01*
X179361869Y-99195000D01*
X178003107Y-99195000D01*
X177984632Y-99176525D01*
X177802466Y-99054805D01*
X177919355Y-98985178D01*
X178135588Y-98790269D01*
X178309641Y-98556920D01*
X178434825Y-98294099D01*
X178479476Y-98146890D01*
X178358155Y-97917000D01*
X177165000Y-97917000D01*
X177165000Y-97937000D01*
X176911000Y-97937000D01*
X176911000Y-97917000D01*
X175717845Y-97917000D01*
X175596524Y-98146890D01*
X175641175Y-98294099D01*
X175766359Y-98556920D01*
X175940412Y-98790269D01*
X176156645Y-98985178D01*
X176273534Y-99054805D01*
X176091368Y-99176525D01*
X175884525Y-99383368D01*
X175722010Y-99626589D01*
X175610068Y-99896842D01*
X175553000Y-100183740D01*
X175553000Y-100476260D01*
X175610068Y-100763158D01*
X175722010Y-101033411D01*
X175884525Y-101276632D01*
X176091368Y-101483475D01*
X176265760Y-101600000D01*
X176091368Y-101716525D01*
X175884525Y-101923368D01*
X175722010Y-102166589D01*
X175610068Y-102436842D01*
X175553000Y-102723740D01*
X175553000Y-103016260D01*
X175610068Y-103303158D01*
X175722010Y-103573411D01*
X175884525Y-103816632D01*
X176091368Y-104023475D01*
X176265760Y-104140000D01*
X176091368Y-104256525D01*
X175884525Y-104463368D01*
X175722010Y-104706589D01*
X175610068Y-104976842D01*
X175553000Y-105263740D01*
X175553000Y-105556260D01*
X175610068Y-105843158D01*
X175722010Y-106113411D01*
X175884525Y-106356632D01*
X176091368Y-106563475D01*
X176265760Y-106680000D01*
X176091368Y-106796525D01*
X175884525Y-107003368D01*
X175722010Y-107246589D01*
X175610068Y-107516842D01*
X175553000Y-107803740D01*
X175553000Y-108096260D01*
X175610068Y-108383158D01*
X175722010Y-108653411D01*
X175884525Y-108896632D01*
X176091368Y-109103475D01*
X176265760Y-109220000D01*
X176091368Y-109336525D01*
X175884525Y-109543368D01*
X175722010Y-109786589D01*
X175610068Y-110056842D01*
X175553000Y-110343740D01*
X175553000Y-110636260D01*
X175610068Y-110923158D01*
X175722010Y-111193411D01*
X175884525Y-111436632D01*
X176091368Y-111643475D01*
X176265760Y-111760000D01*
X176091368Y-111876525D01*
X176072893Y-111895000D01*
X174968132Y-111895000D01*
X174617000Y-111543869D01*
X174617000Y-99623752D01*
X174622491Y-99568000D01*
X174600577Y-99345501D01*
X174535676Y-99131553D01*
X174430284Y-98934377D01*
X174323989Y-98804856D01*
X174323987Y-98804854D01*
X174288449Y-98761551D01*
X174245146Y-98726013D01*
X172952243Y-97433110D01*
X175596524Y-97433110D01*
X175717845Y-97663000D01*
X176911000Y-97663000D01*
X176911000Y-96469186D01*
X177165000Y-96469186D01*
X177165000Y-97663000D01*
X178358155Y-97663000D01*
X178479476Y-97433110D01*
X178434825Y-97285901D01*
X178309641Y-97023080D01*
X178135588Y-96789731D01*
X177919355Y-96594822D01*
X177669252Y-96445843D01*
X177394891Y-96348519D01*
X177165000Y-96469186D01*
X176911000Y-96469186D01*
X176681109Y-96348519D01*
X176406748Y-96445843D01*
X176156645Y-96594822D01*
X175940412Y-96789731D01*
X175766359Y-97023080D01*
X175641175Y-97285901D01*
X175596524Y-97433110D01*
X172952243Y-97433110D01*
X170513996Y-94994865D01*
X170478449Y-94951551D01*
X170305623Y-94809716D01*
X170108447Y-94704324D01*
X169894499Y-94639423D01*
X169727752Y-94623000D01*
X169727751Y-94623000D01*
X169672000Y-94617509D01*
X169616249Y-94623000D01*
X168502578Y-94623000D01*
X170546579Y-92579000D01*
X175843344Y-92579000D01*
X175884525Y-92640632D01*
X176091368Y-92847475D01*
X176334589Y-93009990D01*
X176604842Y-93121932D01*
X176891740Y-93179000D01*
X177184260Y-93179000D01*
X177471158Y-93121932D01*
X177741411Y-93009990D01*
X177984632Y-92847475D01*
X178191475Y-92640632D01*
X178353990Y-92397411D01*
X178465932Y-92127158D01*
X178523000Y-91840260D01*
X178523000Y-91547740D01*
X178465932Y-91260842D01*
X178353990Y-90990589D01*
X178191475Y-90747368D01*
X177984632Y-90540525D01*
X177810240Y-90424000D01*
X177984632Y-90307475D01*
X178191475Y-90100632D01*
X178353990Y-89857411D01*
X178465932Y-89587158D01*
X178523000Y-89300260D01*
X178523000Y-89007740D01*
X178465932Y-88720842D01*
X178353990Y-88450589D01*
X178191475Y-88207368D01*
X177984632Y-88000525D01*
X177802466Y-87878805D01*
X177919355Y-87809178D01*
X178135588Y-87614269D01*
X178309641Y-87380920D01*
X178434825Y-87118099D01*
X178479476Y-86970890D01*
X178358155Y-86741000D01*
X177165000Y-86741000D01*
X177165000Y-86761000D01*
X176911000Y-86761000D01*
X176911000Y-86741000D01*
X175717845Y-86741000D01*
X175596524Y-86970890D01*
X175641175Y-87118099D01*
X175766359Y-87380920D01*
X175940412Y-87614269D01*
X176156645Y-87809178D01*
X176273534Y-87878805D01*
X176091368Y-88000525D01*
X175884525Y-88207368D01*
X175843344Y-88269000D01*
X171493469Y-88269000D01*
X171450000Y-88264719D01*
X171406531Y-88269000D01*
X171406523Y-88269000D01*
X171276510Y-88281805D01*
X171109686Y-88332411D01*
X170955941Y-88414589D01*
X170854953Y-88497468D01*
X170854951Y-88497470D01*
X170821183Y-88525183D01*
X170793470Y-88558951D01*
X168030953Y-91321469D01*
X168019423Y-91332999D01*
X167694950Y-91332999D01*
X167766825Y-91182099D01*
X167811476Y-91034890D01*
X167690155Y-90805000D01*
X166497000Y-90805000D01*
X166497000Y-90825000D01*
X166243000Y-90825000D01*
X166243000Y-90805000D01*
X165049845Y-90805000D01*
X164928524Y-91034890D01*
X164973175Y-91182099D01*
X165045050Y-91332999D01*
X161317466Y-91332999D01*
X161274000Y-91328718D01*
X161230534Y-91332999D01*
X161230524Y-91332999D01*
X161100511Y-91345804D01*
X160933688Y-91396410D01*
X160779942Y-91478588D01*
X160779940Y-91478589D01*
X160779941Y-91478589D01*
X160678954Y-91561467D01*
X160678952Y-91561469D01*
X160645184Y-91589182D01*
X160617471Y-91622950D01*
X158281956Y-93958466D01*
X158248183Y-93986183D01*
X158137589Y-94120942D01*
X158055411Y-94274688D01*
X158004805Y-94441511D01*
X157992000Y-94571524D01*
X157992000Y-94571531D01*
X157987719Y-94615000D01*
X157992000Y-94658469D01*
X157992001Y-102191521D01*
X157987719Y-102235000D01*
X158004805Y-102408490D01*
X158055412Y-102575313D01*
X158137590Y-102729059D01*
X158220468Y-102830046D01*
X158220471Y-102830049D01*
X158248184Y-102863817D01*
X158281951Y-102891529D01*
X159363470Y-103973049D01*
X159391183Y-104006817D01*
X159424951Y-104034530D01*
X159424953Y-104034532D01*
X159462271Y-104065158D01*
X159525941Y-104117411D01*
X159679687Y-104199589D01*
X159846510Y-104250195D01*
X159976523Y-104263000D01*
X159976533Y-104263000D01*
X160019999Y-104267281D01*
X160063465Y-104263000D01*
X165175344Y-104263000D01*
X165216525Y-104324632D01*
X165423368Y-104531475D01*
X165666589Y-104693990D01*
X165936842Y-104805932D01*
X165951281Y-104808804D01*
X165808692Y-104867866D01*
X165614606Y-104997550D01*
X165449550Y-105162606D01*
X165319866Y-105356692D01*
X165230539Y-105572348D01*
X165185000Y-105801288D01*
X165185000Y-106034712D01*
X165230539Y-106263652D01*
X165319866Y-106479308D01*
X165449550Y-106673394D01*
X165614606Y-106838450D01*
X165808692Y-106968134D01*
X166024348Y-107057461D01*
X166253288Y-107103000D01*
X166486712Y-107103000D01*
X166715652Y-107057461D01*
X166931308Y-106968134D01*
X167125394Y-106838450D01*
X167290450Y-106673394D01*
X167420134Y-106479308D01*
X167509461Y-106263652D01*
X167555000Y-106034712D01*
X167555000Y-105801288D01*
X167509461Y-105572348D01*
X167420134Y-105356692D01*
X167290450Y-105162606D01*
X167125394Y-104997550D01*
X166931308Y-104867866D01*
X166788719Y-104808804D01*
X166803158Y-104805932D01*
X167073411Y-104693990D01*
X167316632Y-104531475D01*
X167523475Y-104324632D01*
X167685990Y-104081411D01*
X167797932Y-103811158D01*
X167855000Y-103524260D01*
X167855000Y-103231740D01*
X167797932Y-102944842D01*
X167685990Y-102674589D01*
X167523475Y-102431368D01*
X167316632Y-102224525D01*
X167142240Y-102108000D01*
X167316632Y-101991475D01*
X167523475Y-101784632D01*
X167685990Y-101541411D01*
X167797932Y-101271158D01*
X167855000Y-100984260D01*
X167855000Y-100691740D01*
X167797932Y-100404842D01*
X167685990Y-100134589D01*
X167523475Y-99891368D01*
X167316632Y-99684525D01*
X167142240Y-99568000D01*
X167316632Y-99451475D01*
X167335107Y-99433000D01*
X168693869Y-99433000D01*
X170315000Y-101054132D01*
X170315001Y-113482239D01*
X170309509Y-113538000D01*
X170331423Y-113760498D01*
X170396324Y-113974446D01*
X170445384Y-114066230D01*
X170501717Y-114171623D01*
X170643552Y-114344449D01*
X170686860Y-114379991D01*
X172640009Y-116333141D01*
X172675551Y-116376449D01*
X172848377Y-116518284D01*
X173045553Y-116623676D01*
X173259501Y-116688577D01*
X173350820Y-116697571D01*
X173482000Y-116710491D01*
X173537751Y-116705000D01*
X175620317Y-116705000D01*
X175657463Y-116774494D01*
X175736815Y-116871185D01*
X175833506Y-116950537D01*
X175943820Y-117009502D01*
X176063518Y-117045812D01*
X176188000Y-117058072D01*
X177888000Y-117058072D01*
X178012482Y-117045812D01*
X178132180Y-117009502D01*
X178242494Y-116950537D01*
X178339185Y-116871185D01*
X178418537Y-116774494D01*
X178477502Y-116664180D01*
X178513812Y-116544482D01*
X178526072Y-116420000D01*
X178526072Y-114720000D01*
X178513812Y-114595518D01*
X178477502Y-114475820D01*
X178418537Y-114365506D01*
X178339185Y-114268815D01*
X178242494Y-114189463D01*
X178132180Y-114130498D01*
X178059620Y-114108487D01*
X178191475Y-113976632D01*
X178353990Y-113733411D01*
X178465932Y-113463158D01*
X178523000Y-113176260D01*
X178523000Y-112883740D01*
X178465932Y-112596842D01*
X178353990Y-112326589D01*
X178191475Y-112083368D01*
X177984632Y-111876525D01*
X177810240Y-111760000D01*
X177984632Y-111643475D01*
X178191475Y-111436632D01*
X178353990Y-111193411D01*
X178465932Y-110923158D01*
X178523000Y-110636260D01*
X178523000Y-110343740D01*
X178465932Y-110056842D01*
X178353990Y-109786589D01*
X178191475Y-109543368D01*
X177984632Y-109336525D01*
X177810240Y-109220000D01*
X177984632Y-109103475D01*
X178191475Y-108896632D01*
X178353990Y-108653411D01*
X178465932Y-108383158D01*
X178523000Y-108096260D01*
X178523000Y-107803740D01*
X178465932Y-107516842D01*
X178353990Y-107246589D01*
X178191475Y-107003368D01*
X177984632Y-106796525D01*
X177810240Y-106680000D01*
X177984632Y-106563475D01*
X178191475Y-106356632D01*
X178353990Y-106113411D01*
X178465932Y-105843158D01*
X178523000Y-105556260D01*
X178523000Y-105263740D01*
X178465932Y-104976842D01*
X178353990Y-104706589D01*
X178191475Y-104463368D01*
X177984632Y-104256525D01*
X177810240Y-104140000D01*
X177984632Y-104023475D01*
X178191475Y-103816632D01*
X178353990Y-103573411D01*
X178465932Y-103303158D01*
X178523000Y-103016260D01*
X178523000Y-102723740D01*
X178465932Y-102436842D01*
X178353990Y-102166589D01*
X178191475Y-101923368D01*
X177984632Y-101716525D01*
X177810240Y-101600000D01*
X177984632Y-101483475D01*
X178003107Y-101465000D01*
X179776249Y-101465000D01*
X179832000Y-101470491D01*
X179887751Y-101465000D01*
X179887752Y-101465000D01*
X180054499Y-101448577D01*
X180268447Y-101383676D01*
X180465623Y-101278284D01*
X180638449Y-101136449D01*
X180673996Y-101093135D01*
X183389146Y-98377987D01*
X183432449Y-98342449D01*
X183468928Y-98298000D01*
X183574284Y-98169623D01*
X183679676Y-97972447D01*
X183744577Y-97758499D01*
X183766491Y-97536000D01*
X183761000Y-97480248D01*
X183761000Y-86415743D01*
X183766490Y-86359999D01*
X183761000Y-86304255D01*
X183761000Y-86304248D01*
X183744577Y-86137501D01*
X183679676Y-85923553D01*
X183574284Y-85726377D01*
X183432449Y-85553551D01*
X183389141Y-85518009D01*
X181181996Y-83310865D01*
X181146449Y-83267551D01*
X180973623Y-83125716D01*
X180776447Y-83020324D01*
X180562499Y-82955423D01*
X180395752Y-82939000D01*
X180395751Y-82939000D01*
X180340000Y-82933509D01*
X180284249Y-82939000D01*
X178455683Y-82939000D01*
X178418537Y-82869506D01*
X178339185Y-82772815D01*
X178242494Y-82693463D01*
X178132180Y-82634498D01*
X178012482Y-82598188D01*
X177888000Y-82585928D01*
X176188000Y-82585928D01*
X176063518Y-82598188D01*
X175943820Y-82634498D01*
X175833506Y-82693463D01*
X175736815Y-82772815D01*
X175657463Y-82869506D01*
X175620317Y-82939000D01*
X173029751Y-82939000D01*
X172974000Y-82933509D01*
X172918248Y-82939000D01*
X172751501Y-82955423D01*
X172537553Y-83020324D01*
X172340377Y-83125716D01*
X172167551Y-83267551D01*
X172132009Y-83310859D01*
X168439869Y-87003000D01*
X167335107Y-87003000D01*
X167316632Y-86984525D01*
X167142240Y-86868000D01*
X167316632Y-86751475D01*
X167523475Y-86544632D01*
X167685990Y-86301411D01*
X167797932Y-86031158D01*
X167855000Y-85744260D01*
X167855000Y-85451740D01*
X167797932Y-85164842D01*
X167685990Y-84894589D01*
X167523475Y-84651368D01*
X167391620Y-84519513D01*
X167464180Y-84497502D01*
X167574494Y-84438537D01*
X167671185Y-84359185D01*
X167750537Y-84262494D01*
X167809502Y-84152180D01*
X167845812Y-84032482D01*
X167858072Y-83908000D01*
X167858072Y-82208000D01*
X167845812Y-82083518D01*
X167809502Y-81963820D01*
X167750537Y-81853506D01*
X167671185Y-81756815D01*
X167574494Y-81677463D01*
X167464180Y-81618498D01*
X167344482Y-81582188D01*
X167220000Y-81569928D01*
X165520000Y-81569928D01*
X165395518Y-81582188D01*
X165275820Y-81618498D01*
X165165506Y-81677463D01*
X165068815Y-81756815D01*
X164989463Y-81853506D01*
X164930498Y-81963820D01*
X164894188Y-82083518D01*
X164881928Y-82208000D01*
X164881928Y-83908000D01*
X164894188Y-84032482D01*
X164930498Y-84152180D01*
X164989463Y-84262494D01*
X165068815Y-84359185D01*
X165165506Y-84438537D01*
X165275820Y-84497502D01*
X165348380Y-84519513D01*
X165216525Y-84651368D01*
X165054010Y-84894589D01*
X164942068Y-85164842D01*
X164885000Y-85451740D01*
X164885000Y-85744260D01*
X164942068Y-86031158D01*
X165054010Y-86301411D01*
X165216525Y-86544632D01*
X165423368Y-86751475D01*
X165597760Y-86868000D01*
X165423368Y-86984525D01*
X165404893Y-87003000D01*
X153217743Y-87003000D01*
X153161999Y-86997510D01*
X153106255Y-87003000D01*
X153106248Y-87003000D01*
X152960493Y-87017356D01*
X152939500Y-87019423D01*
X152889705Y-87034529D01*
X152725553Y-87084324D01*
X152528377Y-87189716D01*
X152355551Y-87331551D01*
X152320011Y-87374857D01*
X148080860Y-91614009D01*
X148037552Y-91649551D01*
X147895717Y-91822377D01*
X147850318Y-91907313D01*
X147790324Y-92019554D01*
X147725423Y-92233502D01*
X147703509Y-92456000D01*
X147709001Y-92511762D01*
X147709000Y-117385867D01*
X146595869Y-118499000D01*
X142710132Y-118499000D01*
X139057000Y-114845869D01*
X139057000Y-110129683D01*
X139126494Y-110092537D01*
X139223185Y-110013185D01*
X139302537Y-109916494D01*
X139361502Y-109806180D01*
X139397812Y-109686482D01*
X139410072Y-109562000D01*
X139410072Y-107862000D01*
X139397812Y-107737518D01*
X139361502Y-107617820D01*
X139302537Y-107507506D01*
X139223185Y-107410815D01*
X139126494Y-107331463D01*
X139080728Y-107307000D01*
X140089001Y-107307000D01*
X140089000Y-112212248D01*
X140083509Y-112268000D01*
X140094986Y-112384525D01*
X140105423Y-112490498D01*
X140170324Y-112704446D01*
X140275716Y-112901623D01*
X140417551Y-113074449D01*
X140460865Y-113109996D01*
X141652008Y-114301140D01*
X141687551Y-114344449D01*
X141860377Y-114486284D01*
X142057553Y-114591676D01*
X142221705Y-114641471D01*
X142271500Y-114656577D01*
X142292493Y-114658644D01*
X142438248Y-114673000D01*
X142438255Y-114673000D01*
X142493999Y-114678490D01*
X142549743Y-114673000D01*
X144322893Y-114673000D01*
X144341368Y-114691475D01*
X144515760Y-114808000D01*
X144341368Y-114924525D01*
X144134525Y-115131368D01*
X143972010Y-115374589D01*
X143860068Y-115644842D01*
X143803000Y-115931740D01*
X143803000Y-116224260D01*
X143860068Y-116511158D01*
X143972010Y-116781411D01*
X144134525Y-117024632D01*
X144341368Y-117231475D01*
X144584589Y-117393990D01*
X144854842Y-117505932D01*
X145141740Y-117563000D01*
X145434260Y-117563000D01*
X145721158Y-117505932D01*
X145991411Y-117393990D01*
X146234632Y-117231475D01*
X146441475Y-117024632D01*
X146603990Y-116781411D01*
X146715932Y-116511158D01*
X146773000Y-116224260D01*
X146773000Y-115931740D01*
X146715932Y-115644842D01*
X146603990Y-115374589D01*
X146441475Y-115131368D01*
X146234632Y-114924525D01*
X146060240Y-114808000D01*
X146234632Y-114691475D01*
X146441475Y-114484632D01*
X146603990Y-114241411D01*
X146715932Y-113971158D01*
X146773000Y-113684260D01*
X146773000Y-113391740D01*
X146715932Y-113104842D01*
X146603990Y-112834589D01*
X146441475Y-112591368D01*
X146234632Y-112384525D01*
X145991411Y-112222010D01*
X145721158Y-112110068D01*
X145706719Y-112107196D01*
X145849308Y-112048134D01*
X146043394Y-111918450D01*
X146208450Y-111753394D01*
X146338134Y-111559308D01*
X146427461Y-111343652D01*
X146473000Y-111114712D01*
X146473000Y-110881288D01*
X146427461Y-110652348D01*
X146338134Y-110436692D01*
X146208450Y-110242606D01*
X146043394Y-110077550D01*
X145849308Y-109947866D01*
X145633652Y-109858539D01*
X145404712Y-109813000D01*
X145171288Y-109813000D01*
X144942348Y-109858539D01*
X144726692Y-109947866D01*
X144532606Y-110077550D01*
X144367550Y-110242606D01*
X144237866Y-110436692D01*
X144148539Y-110652348D01*
X144103000Y-110881288D01*
X144103000Y-111114712D01*
X144148539Y-111343652D01*
X144237866Y-111559308D01*
X144367550Y-111753394D01*
X144532606Y-111918450D01*
X144726692Y-112048134D01*
X144869281Y-112107196D01*
X144854842Y-112110068D01*
X144584589Y-112222010D01*
X144341368Y-112384525D01*
X144322893Y-112403000D01*
X142964132Y-112403000D01*
X142359000Y-111797869D01*
X142359000Y-106481741D01*
X142364490Y-106425999D01*
X142359000Y-106370257D01*
X142359000Y-106370248D01*
X142342577Y-106203501D01*
X142277676Y-105989553D01*
X142172284Y-105792377D01*
X142030449Y-105619551D01*
X141987135Y-105584004D01*
X141811996Y-105408865D01*
X141776449Y-105365551D01*
X141603623Y-105223716D01*
X141406447Y-105118324D01*
X141192499Y-105053423D01*
X141025752Y-105037000D01*
X141025751Y-105037000D01*
X140970000Y-105031509D01*
X140914249Y-105037000D01*
X138887107Y-105037000D01*
X138868632Y-105018525D01*
X138694240Y-104902000D01*
X138868632Y-104785475D01*
X139075475Y-104578632D01*
X139237990Y-104335411D01*
X139349932Y-104065158D01*
X139407000Y-103778260D01*
X139407000Y-103485740D01*
X139349932Y-103198842D01*
X139237990Y-102928589D01*
X139075475Y-102685368D01*
X138868632Y-102478525D01*
X138686466Y-102356805D01*
X138803355Y-102287178D01*
X139019588Y-102092269D01*
X139193641Y-101858920D01*
X139318825Y-101596099D01*
X139363476Y-101448890D01*
X139242155Y-101219000D01*
X138049000Y-101219000D01*
X138049000Y-101239000D01*
X137795000Y-101239000D01*
X137795000Y-101219000D01*
X136601845Y-101219000D01*
X136480524Y-101448890D01*
X136525175Y-101596099D01*
X136650359Y-101858920D01*
X136824412Y-102092269D01*
X137040645Y-102287178D01*
X137157534Y-102356805D01*
X136975368Y-102478525D01*
X136768525Y-102685368D01*
X136606010Y-102928589D01*
X136494068Y-103198842D01*
X136437000Y-103485740D01*
X136437000Y-103778260D01*
X136494068Y-104065158D01*
X136606010Y-104335411D01*
X136768525Y-104578632D01*
X136975368Y-104785475D01*
X137149760Y-104902000D01*
X136975368Y-105018525D01*
X136956893Y-105037000D01*
X136614132Y-105037000D01*
X136009000Y-104431869D01*
X136009000Y-101909751D01*
X136014491Y-101854000D01*
X136000328Y-101710194D01*
X135992577Y-101631501D01*
X135927676Y-101417553D01*
X135822284Y-101220377D01*
X135680449Y-101047551D01*
X135637140Y-101012008D01*
X135360242Y-100735110D01*
X136480524Y-100735110D01*
X136601845Y-100965000D01*
X137795000Y-100965000D01*
X137795000Y-99771186D01*
X138049000Y-99771186D01*
X138049000Y-100965000D01*
X139242155Y-100965000D01*
X139363476Y-100735110D01*
X139318825Y-100587901D01*
X139193641Y-100325080D01*
X139019588Y-100091731D01*
X138803355Y-99896822D01*
X138553252Y-99747843D01*
X138278891Y-99650519D01*
X138049000Y-99771186D01*
X137795000Y-99771186D01*
X137565109Y-99650519D01*
X137290748Y-99747843D01*
X137040645Y-99896822D01*
X136824412Y-100091731D01*
X136650359Y-100325080D01*
X136525175Y-100587901D01*
X136480524Y-100735110D01*
X135360242Y-100735110D01*
X134699996Y-100074864D01*
X134664449Y-100031551D01*
X134491623Y-99889716D01*
X134294447Y-99784324D01*
X134080499Y-99719423D01*
X133913752Y-99703000D01*
X133913751Y-99703000D01*
X133858000Y-99697509D01*
X133802249Y-99703000D01*
X133292288Y-99703000D01*
X133220359Y-99654939D01*
X132977405Y-99554304D01*
X132719486Y-99503000D01*
X132456514Y-99503000D01*
X132198595Y-99554304D01*
X131955641Y-99654939D01*
X131736987Y-99801038D01*
X131551038Y-99986987D01*
X131404939Y-100205641D01*
X131304304Y-100448595D01*
X131253000Y-100706514D01*
X131253000Y-100969486D01*
X131304304Y-101227405D01*
X131404939Y-101470359D01*
X131551038Y-101689013D01*
X131736987Y-101874962D01*
X131955641Y-102021061D01*
X132198595Y-102121696D01*
X132456514Y-102173000D01*
X132719486Y-102173000D01*
X132977405Y-102121696D01*
X133220359Y-102021061D01*
X133292288Y-101973000D01*
X133387869Y-101973000D01*
X133739001Y-102324132D01*
X133739000Y-104846248D01*
X133733509Y-104902000D01*
X133739000Y-104957751D01*
X133755423Y-105124498D01*
X133820324Y-105338446D01*
X133925716Y-105535623D01*
X134067551Y-105708449D01*
X134110865Y-105743996D01*
X135302008Y-106935140D01*
X135337551Y-106978449D01*
X135510377Y-107120284D01*
X135707553Y-107225676D01*
X135847036Y-107267988D01*
X135921500Y-107290577D01*
X135942493Y-107292644D01*
X136088248Y-107307000D01*
X136088255Y-107307000D01*
X136143999Y-107312490D01*
X136199743Y-107307000D01*
X136763272Y-107307000D01*
X136717506Y-107331463D01*
X136620815Y-107410815D01*
X136541463Y-107507506D01*
X136504317Y-107577000D01*
X133723000Y-107577000D01*
X133723000Y-106622288D01*
X133771061Y-106550359D01*
X133871696Y-106307405D01*
X133923000Y-106049486D01*
X133923000Y-105786514D01*
X133871696Y-105528595D01*
X133771061Y-105285641D01*
X133624962Y-105066987D01*
X133439013Y-104881038D01*
X133220359Y-104734939D01*
X132977405Y-104634304D01*
X132719486Y-104583000D01*
X132456514Y-104583000D01*
X132198595Y-104634304D01*
X131955641Y-104734939D01*
X131736987Y-104881038D01*
X131551038Y-105066987D01*
X131404939Y-105285641D01*
X131304304Y-105528595D01*
X131253000Y-105786514D01*
X131253000Y-106049486D01*
X131304304Y-106307405D01*
X131404939Y-106550359D01*
X131453000Y-106622288D01*
X131453001Y-108656239D01*
X131447509Y-108712000D01*
X131453000Y-108767752D01*
X131453001Y-111090760D01*
X131318013Y-111225748D01*
X131139082Y-111493537D01*
X131015832Y-111791088D01*
X130953000Y-112106967D01*
X127660000Y-112106967D01*
X127660000Y-98151740D01*
X143803000Y-98151740D01*
X143803000Y-98444260D01*
X143860068Y-98731158D01*
X143972010Y-99001411D01*
X144134525Y-99244632D01*
X144341368Y-99451475D01*
X144515760Y-99568000D01*
X144341368Y-99684525D01*
X144134525Y-99891368D01*
X143972010Y-100134589D01*
X143860068Y-100404842D01*
X143803000Y-100691740D01*
X143803000Y-100984260D01*
X143860068Y-101271158D01*
X143972010Y-101541411D01*
X144134525Y-101784632D01*
X144341368Y-101991475D01*
X144515760Y-102108000D01*
X144341368Y-102224525D01*
X144134525Y-102431368D01*
X143972010Y-102674589D01*
X143860068Y-102944842D01*
X143803000Y-103231740D01*
X143803000Y-103524260D01*
X143860068Y-103811158D01*
X143972010Y-104081411D01*
X144134525Y-104324632D01*
X144341368Y-104531475D01*
X144515760Y-104648000D01*
X144341368Y-104764525D01*
X144134525Y-104971368D01*
X143972010Y-105214589D01*
X143860068Y-105484842D01*
X143803000Y-105771740D01*
X143803000Y-106064260D01*
X143860068Y-106351158D01*
X143972010Y-106621411D01*
X144134525Y-106864632D01*
X144341368Y-107071475D01*
X144584589Y-107233990D01*
X144854842Y-107345932D01*
X144869281Y-107348804D01*
X144726692Y-107407866D01*
X144532606Y-107537550D01*
X144367550Y-107702606D01*
X144237866Y-107896692D01*
X144148539Y-108112348D01*
X144103000Y-108341288D01*
X144103000Y-108574712D01*
X144148539Y-108803652D01*
X144237866Y-109019308D01*
X144367550Y-109213394D01*
X144532606Y-109378450D01*
X144726692Y-109508134D01*
X144942348Y-109597461D01*
X145171288Y-109643000D01*
X145404712Y-109643000D01*
X145633652Y-109597461D01*
X145849308Y-109508134D01*
X146043394Y-109378450D01*
X146208450Y-109213394D01*
X146338134Y-109019308D01*
X146427461Y-108803652D01*
X146473000Y-108574712D01*
X146473000Y-108341288D01*
X146427461Y-108112348D01*
X146338134Y-107896692D01*
X146208450Y-107702606D01*
X146043394Y-107537550D01*
X145849308Y-107407866D01*
X145706719Y-107348804D01*
X145721158Y-107345932D01*
X145991411Y-107233990D01*
X146234632Y-107071475D01*
X146441475Y-106864632D01*
X146603990Y-106621411D01*
X146715932Y-106351158D01*
X146773000Y-106064260D01*
X146773000Y-105771740D01*
X146715932Y-105484842D01*
X146603990Y-105214589D01*
X146441475Y-104971368D01*
X146234632Y-104764525D01*
X146060240Y-104648000D01*
X146234632Y-104531475D01*
X146441475Y-104324632D01*
X146603990Y-104081411D01*
X146715932Y-103811158D01*
X146773000Y-103524260D01*
X146773000Y-103231740D01*
X146715932Y-102944842D01*
X146603990Y-102674589D01*
X146441475Y-102431368D01*
X146234632Y-102224525D01*
X146060240Y-102108000D01*
X146234632Y-101991475D01*
X146441475Y-101784632D01*
X146603990Y-101541411D01*
X146715932Y-101271158D01*
X146773000Y-100984260D01*
X146773000Y-100691740D01*
X146715932Y-100404842D01*
X146603990Y-100134589D01*
X146441475Y-99891368D01*
X146234632Y-99684525D01*
X146060240Y-99568000D01*
X146234632Y-99451475D01*
X146441475Y-99244632D01*
X146603990Y-99001411D01*
X146715932Y-98731158D01*
X146773000Y-98444260D01*
X146773000Y-98151740D01*
X146715932Y-97864842D01*
X146603990Y-97594589D01*
X146441475Y-97351368D01*
X146234632Y-97144525D01*
X145991411Y-96982010D01*
X145721158Y-96870068D01*
X145706719Y-96867196D01*
X145849308Y-96808134D01*
X146043394Y-96678450D01*
X146208450Y-96513394D01*
X146338134Y-96319308D01*
X146427461Y-96103652D01*
X146473000Y-95874712D01*
X146473000Y-95641288D01*
X146427461Y-95412348D01*
X146338134Y-95196692D01*
X146208450Y-95002606D01*
X146043394Y-94837550D01*
X145849308Y-94707866D01*
X145633652Y-94618539D01*
X145404712Y-94573000D01*
X145171288Y-94573000D01*
X144942348Y-94618539D01*
X144726692Y-94707866D01*
X144532606Y-94837550D01*
X144367550Y-95002606D01*
X144237866Y-95196692D01*
X144148539Y-95412348D01*
X144103000Y-95641288D01*
X144103000Y-95874712D01*
X144148539Y-96103652D01*
X144237866Y-96319308D01*
X144367550Y-96513394D01*
X144532606Y-96678450D01*
X144726692Y-96808134D01*
X144869281Y-96867196D01*
X144854842Y-96870068D01*
X144584589Y-96982010D01*
X144341368Y-97144525D01*
X144134525Y-97351368D01*
X143972010Y-97594589D01*
X143860068Y-97864842D01*
X143803000Y-98151740D01*
X127660000Y-98151740D01*
X127660000Y-90888524D01*
X131195000Y-90888524D01*
X131195000Y-91610477D01*
X131207805Y-91740490D01*
X131258412Y-91907313D01*
X131340590Y-92061059D01*
X131451184Y-92195817D01*
X131585942Y-92306411D01*
X131739688Y-92388589D01*
X131906511Y-92439195D01*
X132080000Y-92456282D01*
X132253490Y-92439195D01*
X132420313Y-92388589D01*
X132574059Y-92306411D01*
X132708817Y-92195817D01*
X132819411Y-92061059D01*
X132901589Y-91907313D01*
X132952195Y-91740490D01*
X132965000Y-91610477D01*
X132965000Y-90888523D01*
X132952195Y-90758510D01*
X132901589Y-90591687D01*
X132819411Y-90437941D01*
X132708817Y-90303183D01*
X132574058Y-90192589D01*
X132420312Y-90110411D01*
X132253489Y-90059805D01*
X132080000Y-90042718D01*
X131906510Y-90059805D01*
X131739687Y-90110411D01*
X131585941Y-90192589D01*
X131451183Y-90303183D01*
X131340589Y-90437942D01*
X131258411Y-90591688D01*
X131207805Y-90758511D01*
X131195000Y-90888524D01*
X127660000Y-90888524D01*
X127660000Y-88392000D01*
X130682718Y-88392000D01*
X130699805Y-88565490D01*
X130750411Y-88732313D01*
X130832589Y-88886059D01*
X130943183Y-89020817D01*
X131077941Y-89131411D01*
X131231687Y-89213589D01*
X131252191Y-89219809D01*
X131258411Y-89240313D01*
X131340590Y-89394059D01*
X131451184Y-89528817D01*
X131585942Y-89639411D01*
X131739688Y-89721589D01*
X131906511Y-89772195D01*
X132080000Y-89789282D01*
X132253490Y-89772195D01*
X132420313Y-89721589D01*
X132574059Y-89639411D01*
X132708817Y-89528817D01*
X132819411Y-89394059D01*
X132901589Y-89240313D01*
X132907809Y-89219809D01*
X132928313Y-89213589D01*
X133082059Y-89131411D01*
X133216817Y-89020817D01*
X133327411Y-88886059D01*
X133409589Y-88732313D01*
X133460195Y-88565490D01*
X133477282Y-88392000D01*
X133460195Y-88218510D01*
X133409589Y-88051687D01*
X133327411Y-87897941D01*
X133216817Y-87763183D01*
X133082059Y-87652589D01*
X132928313Y-87570411D01*
X132907809Y-87564191D01*
X132901589Y-87543687D01*
X132900688Y-87542000D01*
X133893928Y-87542000D01*
X133893928Y-89242000D01*
X133906188Y-89366482D01*
X133942498Y-89486180D01*
X134001463Y-89596494D01*
X134080815Y-89693185D01*
X134177506Y-89772537D01*
X134287820Y-89831502D01*
X134360380Y-89853513D01*
X134228525Y-89985368D01*
X134066010Y-90228589D01*
X133954068Y-90498842D01*
X133897000Y-90785740D01*
X133897000Y-91078260D01*
X133954068Y-91365158D01*
X134066010Y-91635411D01*
X134228525Y-91878632D01*
X134247000Y-91897107D01*
X134247001Y-94432239D01*
X134241509Y-94488000D01*
X134263423Y-94710498D01*
X134328324Y-94924446D01*
X134377384Y-95016230D01*
X134433717Y-95121623D01*
X134575552Y-95294449D01*
X134618860Y-95329991D01*
X136572009Y-97283141D01*
X136607551Y-97326449D01*
X136780377Y-97468284D01*
X136907066Y-97536000D01*
X136977553Y-97573676D01*
X137191501Y-97638577D01*
X137414000Y-97660491D01*
X137469751Y-97655000D01*
X139757712Y-97655000D01*
X139829641Y-97703061D01*
X140072595Y-97803696D01*
X140330514Y-97855000D01*
X140593486Y-97855000D01*
X140851405Y-97803696D01*
X141094359Y-97703061D01*
X141313013Y-97556962D01*
X141498962Y-97371013D01*
X141645061Y-97152359D01*
X141745696Y-96909405D01*
X141797000Y-96651486D01*
X141797000Y-96388514D01*
X141745696Y-96130595D01*
X141645061Y-95887641D01*
X141498962Y-95668987D01*
X141313013Y-95483038D01*
X141094359Y-95336939D01*
X140851405Y-95236304D01*
X140593486Y-95185000D01*
X140330514Y-95185000D01*
X140072595Y-95236304D01*
X139829641Y-95336939D01*
X139757712Y-95385000D01*
X137884132Y-95385000D01*
X136517000Y-94017869D01*
X136517000Y-91897107D01*
X136535475Y-91878632D01*
X136697990Y-91635411D01*
X136809932Y-91365158D01*
X136867000Y-91078260D01*
X136867000Y-90785740D01*
X136809932Y-90498842D01*
X136697990Y-90228589D01*
X136535475Y-89985368D01*
X136403620Y-89853513D01*
X136476180Y-89831502D01*
X136586494Y-89772537D01*
X136683185Y-89693185D01*
X136762537Y-89596494D01*
X136821502Y-89486180D01*
X136857812Y-89366482D01*
X136870072Y-89242000D01*
X136870072Y-88006514D01*
X139127000Y-88006514D01*
X139127000Y-88269486D01*
X139178304Y-88527405D01*
X139278939Y-88770359D01*
X139327000Y-88842288D01*
X139327001Y-90735711D01*
X139278939Y-90807641D01*
X139178304Y-91050595D01*
X139127000Y-91308514D01*
X139127000Y-91571486D01*
X139178304Y-91829405D01*
X139278939Y-92072359D01*
X139425038Y-92291013D01*
X139610987Y-92476962D01*
X139829641Y-92623061D01*
X140072595Y-92723696D01*
X140330514Y-92775000D01*
X140593486Y-92775000D01*
X140851405Y-92723696D01*
X141094359Y-92623061D01*
X141313013Y-92476962D01*
X141498962Y-92291013D01*
X141645061Y-92072359D01*
X141745696Y-91829405D01*
X141797000Y-91571486D01*
X141797000Y-91308514D01*
X141745696Y-91050595D01*
X141645061Y-90807641D01*
X141597000Y-90735712D01*
X141597000Y-89273000D01*
X144322893Y-89273000D01*
X144341368Y-89291475D01*
X144515760Y-89408000D01*
X144341368Y-89524525D01*
X144134525Y-89731368D01*
X143972010Y-89974589D01*
X143860068Y-90244842D01*
X143803000Y-90531740D01*
X143803000Y-90824260D01*
X143860068Y-91111158D01*
X143972010Y-91381411D01*
X144134525Y-91624632D01*
X144341368Y-91831475D01*
X144584589Y-91993990D01*
X144854842Y-92105932D01*
X144869281Y-92108804D01*
X144726692Y-92167866D01*
X144532606Y-92297550D01*
X144367550Y-92462606D01*
X144237866Y-92656692D01*
X144148539Y-92872348D01*
X144103000Y-93101288D01*
X144103000Y-93334712D01*
X144148539Y-93563652D01*
X144237866Y-93779308D01*
X144367550Y-93973394D01*
X144532606Y-94138450D01*
X144726692Y-94268134D01*
X144942348Y-94357461D01*
X145171288Y-94403000D01*
X145404712Y-94403000D01*
X145633652Y-94357461D01*
X145849308Y-94268134D01*
X146043394Y-94138450D01*
X146208450Y-93973394D01*
X146338134Y-93779308D01*
X146427461Y-93563652D01*
X146473000Y-93334712D01*
X146473000Y-93101288D01*
X146427461Y-92872348D01*
X146338134Y-92656692D01*
X146208450Y-92462606D01*
X146043394Y-92297550D01*
X145849308Y-92167866D01*
X145706719Y-92108804D01*
X145721158Y-92105932D01*
X145991411Y-91993990D01*
X146234632Y-91831475D01*
X146441475Y-91624632D01*
X146603990Y-91381411D01*
X146715932Y-91111158D01*
X146773000Y-90824260D01*
X146773000Y-90531740D01*
X146715932Y-90244842D01*
X146603990Y-89974589D01*
X146441475Y-89731368D01*
X146234632Y-89524525D01*
X146060240Y-89408000D01*
X146234632Y-89291475D01*
X146441475Y-89084632D01*
X146603990Y-88841411D01*
X146715932Y-88571158D01*
X146773000Y-88284260D01*
X146773000Y-87991740D01*
X146715932Y-87704842D01*
X146603990Y-87434589D01*
X146441475Y-87191368D01*
X146234632Y-86984525D01*
X146060240Y-86868000D01*
X146234632Y-86751475D01*
X146441475Y-86544632D01*
X146603990Y-86301411D01*
X146715932Y-86031158D01*
X146773000Y-85744260D01*
X146773000Y-85451740D01*
X146715932Y-85164842D01*
X146603990Y-84894589D01*
X146441475Y-84651368D01*
X146309620Y-84519513D01*
X146382180Y-84497502D01*
X146492494Y-84438537D01*
X146589185Y-84359185D01*
X146668537Y-84262494D01*
X146727502Y-84152180D01*
X146763812Y-84032482D01*
X146776072Y-83908000D01*
X146776072Y-82208000D01*
X146763812Y-82083518D01*
X146727502Y-81963820D01*
X146668537Y-81853506D01*
X146589185Y-81756815D01*
X146492494Y-81677463D01*
X146382180Y-81618498D01*
X146262482Y-81582188D01*
X146138000Y-81569928D01*
X144438000Y-81569928D01*
X144313518Y-81582188D01*
X144193820Y-81618498D01*
X144083506Y-81677463D01*
X143986815Y-81756815D01*
X143907463Y-81853506D01*
X143848498Y-81963820D01*
X143812188Y-82083518D01*
X143799928Y-82208000D01*
X143799928Y-83908000D01*
X143812188Y-84032482D01*
X143848498Y-84152180D01*
X143907463Y-84262494D01*
X143986815Y-84359185D01*
X144083506Y-84438537D01*
X144193820Y-84497502D01*
X144266380Y-84519513D01*
X144134525Y-84651368D01*
X143972010Y-84894589D01*
X143860068Y-85164842D01*
X143803000Y-85451740D01*
X143803000Y-85744260D01*
X143860068Y-86031158D01*
X143972010Y-86301411D01*
X144134525Y-86544632D01*
X144341368Y-86751475D01*
X144515760Y-86868000D01*
X144341368Y-86984525D01*
X144322893Y-87003000D01*
X141166288Y-87003000D01*
X141094359Y-86954939D01*
X140851405Y-86854304D01*
X140593486Y-86803000D01*
X140330514Y-86803000D01*
X140072595Y-86854304D01*
X139829641Y-86954939D01*
X139610987Y-87101038D01*
X139425038Y-87286987D01*
X139278939Y-87505641D01*
X139178304Y-87748595D01*
X139127000Y-88006514D01*
X136870072Y-88006514D01*
X136870072Y-87542000D01*
X136857812Y-87417518D01*
X136821502Y-87297820D01*
X136762537Y-87187506D01*
X136683185Y-87090815D01*
X136586494Y-87011463D01*
X136517000Y-86974317D01*
X136517000Y-85814131D01*
X138138132Y-84193000D01*
X139757712Y-84193000D01*
X139829641Y-84241061D01*
X140072595Y-84341696D01*
X140330514Y-84393000D01*
X140593486Y-84393000D01*
X140851405Y-84341696D01*
X141094359Y-84241061D01*
X141313013Y-84094962D01*
X141498962Y-83909013D01*
X141645061Y-83690359D01*
X141745696Y-83447405D01*
X141797000Y-83189486D01*
X141797000Y-82926514D01*
X141745696Y-82668595D01*
X141645061Y-82425641D01*
X141498962Y-82206987D01*
X141313013Y-82021038D01*
X141094359Y-81874939D01*
X140851405Y-81774304D01*
X140593486Y-81723000D01*
X140330514Y-81723000D01*
X140072595Y-81774304D01*
X139829641Y-81874939D01*
X139757712Y-81923000D01*
X137723743Y-81923000D01*
X137667999Y-81917510D01*
X137612255Y-81923000D01*
X137612248Y-81923000D01*
X137466493Y-81937356D01*
X137445500Y-81939423D01*
X137395705Y-81954529D01*
X137231553Y-82004324D01*
X137034377Y-82109716D01*
X136861551Y-82251551D01*
X136826009Y-82294859D01*
X134618860Y-84502009D01*
X134575552Y-84537551D01*
X134433717Y-84710377D01*
X134377384Y-84815770D01*
X134328324Y-84907554D01*
X134263423Y-85121502D01*
X134241509Y-85344000D01*
X134247001Y-85399761D01*
X134247000Y-86974317D01*
X134177506Y-87011463D01*
X134080815Y-87090815D01*
X134001463Y-87187506D01*
X133942498Y-87297820D01*
X133906188Y-87417518D01*
X133893928Y-87542000D01*
X132900688Y-87542000D01*
X132819411Y-87389941D01*
X132708817Y-87255183D01*
X132574058Y-87144589D01*
X132420312Y-87062411D01*
X132253489Y-87011805D01*
X132080000Y-86994718D01*
X131906510Y-87011805D01*
X131739687Y-87062411D01*
X131585941Y-87144589D01*
X131451183Y-87255183D01*
X131340589Y-87389942D01*
X131258411Y-87543688D01*
X131252191Y-87564191D01*
X131231687Y-87570411D01*
X131077941Y-87652589D01*
X130943183Y-87763183D01*
X130832589Y-87897941D01*
X130750411Y-88051687D01*
X130699805Y-88218510D01*
X130682718Y-88392000D01*
X127660000Y-88392000D01*
X127660000Y-79400000D01*
X184760001Y-79400000D01*
X184760000Y-123800000D01*
%TA.AperFunction,Conductor*%
D19*
G36*
X184760000Y-123800000D02*
G01*
X127660000Y-123800000D01*
X127660000Y-118403413D01*
X131632192Y-118403413D01*
X131727956Y-118667814D01*
X132017571Y-118808704D01*
X132329108Y-118890384D01*
X132650595Y-118909718D01*
X132969675Y-118865961D01*
X133274088Y-118760795D01*
X133448044Y-118667814D01*
X133543808Y-118403413D01*
X132588000Y-117447605D01*
X131632192Y-118403413D01*
X127660000Y-118403413D01*
X127660000Y-117330595D01*
X130946282Y-117330595D01*
X130990039Y-117649675D01*
X131095205Y-117954088D01*
X131188186Y-118128044D01*
X131452587Y-118223808D01*
X132408395Y-117268000D01*
X132767605Y-117268000D01*
X133723413Y-118223808D01*
X133987814Y-118128044D01*
X134128704Y-117838429D01*
X134210384Y-117526892D01*
X134229718Y-117205405D01*
X134185961Y-116886325D01*
X134080795Y-116581912D01*
X133987814Y-116407956D01*
X133723413Y-116312192D01*
X132767605Y-117268000D01*
X132408395Y-117268000D01*
X131452587Y-116312192D01*
X131188186Y-116407956D01*
X131047296Y-116697571D01*
X130965616Y-117009108D01*
X130946282Y-117330595D01*
X127660000Y-117330595D01*
X127660000Y-116132587D01*
X131632192Y-116132587D01*
X132588000Y-117088395D01*
X133543808Y-116132587D01*
X133448044Y-115868186D01*
X133158429Y-115727296D01*
X132846892Y-115645616D01*
X132525405Y-115626282D01*
X132206325Y-115670039D01*
X131901912Y-115775205D01*
X131727956Y-115868186D01*
X131632192Y-116132587D01*
X127660000Y-116132587D01*
X127660000Y-112106967D01*
X130953000Y-112106967D01*
X130953000Y-112429033D01*
X131015832Y-112744912D01*
X131139082Y-113042463D01*
X131318013Y-113310252D01*
X131545748Y-113537987D01*
X131813537Y-113716918D01*
X132111088Y-113840168D01*
X132426967Y-113903000D01*
X132749033Y-113903000D01*
X133064912Y-113840168D01*
X133362463Y-113716918D01*
X133630252Y-113537987D01*
X133857987Y-113310252D01*
X134036918Y-113042463D01*
X134160168Y-112744912D01*
X134223000Y-112429033D01*
X134223000Y-112106967D01*
X134160168Y-111791088D01*
X134036918Y-111493537D01*
X133857987Y-111225748D01*
X133723000Y-111090761D01*
X133723000Y-109847000D01*
X136504317Y-109847000D01*
X136541463Y-109916494D01*
X136620815Y-110013185D01*
X136717506Y-110092537D01*
X136787000Y-110129683D01*
X136787001Y-115260239D01*
X136781509Y-115316000D01*
X136803423Y-115538498D01*
X136868324Y-115752446D01*
X136889733Y-115792499D01*
X136973717Y-115949623D01*
X137115552Y-116122449D01*
X137158860Y-116157991D01*
X141398009Y-120397141D01*
X141433551Y-120440449D01*
X141606377Y-120582284D01*
X141803553Y-120687676D01*
X141967705Y-120737471D01*
X142017500Y-120752577D01*
X142038493Y-120754644D01*
X142184248Y-120769000D01*
X142184255Y-120769000D01*
X142239999Y-120774490D01*
X142295743Y-120769000D01*
X147010249Y-120769000D01*
X147066000Y-120774491D01*
X147121751Y-120769000D01*
X147121752Y-120769000D01*
X147288499Y-120752577D01*
X147502447Y-120687676D01*
X147699623Y-120582284D01*
X147872449Y-120440449D01*
X147907995Y-120397136D01*
X149607146Y-118697987D01*
X149650449Y-118662449D01*
X149717848Y-118580324D01*
X149792284Y-118489623D01*
X149897676Y-118292447D01*
X149962577Y-118078499D01*
X149984491Y-117856000D01*
X149979000Y-117800248D01*
X149979000Y-110851740D01*
X164885000Y-110851740D01*
X164885000Y-111144260D01*
X164942068Y-111431158D01*
X165054010Y-111701411D01*
X165216525Y-111944632D01*
X165423368Y-112151475D01*
X165597760Y-112268000D01*
X165423368Y-112384525D01*
X165216525Y-112591368D01*
X165054010Y-112834589D01*
X164942068Y-113104842D01*
X164885000Y-113391740D01*
X164885000Y-113684260D01*
X164942068Y-113971158D01*
X165054010Y-114241411D01*
X165216525Y-114484632D01*
X165423368Y-114691475D01*
X165597760Y-114808000D01*
X165423368Y-114924525D01*
X165216525Y-115131368D01*
X165054010Y-115374589D01*
X164942068Y-115644842D01*
X164885000Y-115931740D01*
X164885000Y-116224260D01*
X164942068Y-116511158D01*
X165054010Y-116781411D01*
X165216525Y-117024632D01*
X165423368Y-117231475D01*
X165666589Y-117393990D01*
X165936842Y-117505932D01*
X166223740Y-117563000D01*
X166516260Y-117563000D01*
X166803158Y-117505932D01*
X167073411Y-117393990D01*
X167316632Y-117231475D01*
X167523475Y-117024632D01*
X167685990Y-116781411D01*
X167797932Y-116511158D01*
X167855000Y-116224260D01*
X167855000Y-115931740D01*
X167797932Y-115644842D01*
X167685990Y-115374589D01*
X167523475Y-115131368D01*
X167316632Y-114924525D01*
X167142240Y-114808000D01*
X167316632Y-114691475D01*
X167523475Y-114484632D01*
X167685990Y-114241411D01*
X167797932Y-113971158D01*
X167855000Y-113684260D01*
X167855000Y-113391740D01*
X167797932Y-113104842D01*
X167685990Y-112834589D01*
X167523475Y-112591368D01*
X167316632Y-112384525D01*
X167142240Y-112268000D01*
X167316632Y-112151475D01*
X167523475Y-111944632D01*
X167685990Y-111701411D01*
X167797932Y-111431158D01*
X167855000Y-111144260D01*
X167855000Y-110851740D01*
X167797932Y-110564842D01*
X167685990Y-110294589D01*
X167523475Y-110051368D01*
X167316632Y-109844525D01*
X167073411Y-109682010D01*
X166803158Y-109570068D01*
X166788719Y-109567196D01*
X166931308Y-109508134D01*
X167125394Y-109378450D01*
X167290450Y-109213394D01*
X167420134Y-109019308D01*
X167509461Y-108803652D01*
X167555000Y-108574712D01*
X167555000Y-108341288D01*
X167509461Y-108112348D01*
X167420134Y-107896692D01*
X167290450Y-107702606D01*
X167125394Y-107537550D01*
X166931308Y-107407866D01*
X166715652Y-107318539D01*
X166486712Y-107273000D01*
X166253288Y-107273000D01*
X166024348Y-107318539D01*
X165808692Y-107407866D01*
X165614606Y-107537550D01*
X165449550Y-107702606D01*
X165319866Y-107896692D01*
X165230539Y-108112348D01*
X165185000Y-108341288D01*
X165185000Y-108574712D01*
X165230539Y-108803652D01*
X165319866Y-109019308D01*
X165449550Y-109213394D01*
X165614606Y-109378450D01*
X165808692Y-109508134D01*
X165951281Y-109567196D01*
X165936842Y-109570068D01*
X165666589Y-109682010D01*
X165423368Y-109844525D01*
X165216525Y-110051368D01*
X165054010Y-110294589D01*
X164942068Y-110564842D01*
X164885000Y-110851740D01*
X149979000Y-110851740D01*
X149979000Y-92926131D01*
X153632132Y-89273000D01*
X165404893Y-89273000D01*
X165423368Y-89291475D01*
X165605534Y-89413195D01*
X165488645Y-89482822D01*
X165272412Y-89677731D01*
X165098359Y-89911080D01*
X164973175Y-90173901D01*
X164928524Y-90321110D01*
X165049845Y-90551000D01*
X166243000Y-90551000D01*
X166243000Y-90531000D01*
X166497000Y-90531000D01*
X166497000Y-90551000D01*
X167690155Y-90551000D01*
X167811476Y-90321110D01*
X167766825Y-90173901D01*
X167641641Y-89911080D01*
X167467588Y-89677731D01*
X167251355Y-89482822D01*
X167134466Y-89413195D01*
X167316632Y-89291475D01*
X167335107Y-89273000D01*
X168854249Y-89273000D01*
X168910000Y-89278491D01*
X168965751Y-89273000D01*
X168965752Y-89273000D01*
X169132499Y-89256577D01*
X169346447Y-89191676D01*
X169543623Y-89086284D01*
X169716449Y-88944449D01*
X169751996Y-88901135D01*
X173444132Y-85209000D01*
X175620317Y-85209000D01*
X175657463Y-85278494D01*
X175736815Y-85375185D01*
X175833506Y-85454537D01*
X175943820Y-85513502D01*
X176024466Y-85537966D01*
X175940412Y-85613731D01*
X175766359Y-85847080D01*
X175641175Y-86109901D01*
X175596524Y-86257110D01*
X175717845Y-86487000D01*
X176911000Y-86487000D01*
X176911000Y-86467000D01*
X177165000Y-86467000D01*
X177165000Y-86487000D01*
X178358155Y-86487000D01*
X178479476Y-86257110D01*
X178434825Y-86109901D01*
X178309641Y-85847080D01*
X178135588Y-85613731D01*
X178051534Y-85537966D01*
X178132180Y-85513502D01*
X178242494Y-85454537D01*
X178339185Y-85375185D01*
X178418537Y-85278494D01*
X178455683Y-85209000D01*
X179869869Y-85209000D01*
X181491001Y-86830133D01*
X181491000Y-97065867D01*
X179361869Y-99195000D01*
X178003107Y-99195000D01*
X177984632Y-99176525D01*
X177802466Y-99054805D01*
X177919355Y-98985178D01*
X178135588Y-98790269D01*
X178309641Y-98556920D01*
X178434825Y-98294099D01*
X178479476Y-98146890D01*
X178358155Y-97917000D01*
X177165000Y-97917000D01*
X177165000Y-97937000D01*
X176911000Y-97937000D01*
X176911000Y-97917000D01*
X175717845Y-97917000D01*
X175596524Y-98146890D01*
X175641175Y-98294099D01*
X175766359Y-98556920D01*
X175940412Y-98790269D01*
X176156645Y-98985178D01*
X176273534Y-99054805D01*
X176091368Y-99176525D01*
X175884525Y-99383368D01*
X175722010Y-99626589D01*
X175610068Y-99896842D01*
X175553000Y-100183740D01*
X175553000Y-100476260D01*
X175610068Y-100763158D01*
X175722010Y-101033411D01*
X175884525Y-101276632D01*
X176091368Y-101483475D01*
X176265760Y-101600000D01*
X176091368Y-101716525D01*
X175884525Y-101923368D01*
X175722010Y-102166589D01*
X175610068Y-102436842D01*
X175553000Y-102723740D01*
X175553000Y-103016260D01*
X175610068Y-103303158D01*
X175722010Y-103573411D01*
X175884525Y-103816632D01*
X176091368Y-104023475D01*
X176265760Y-104140000D01*
X176091368Y-104256525D01*
X175884525Y-104463368D01*
X175722010Y-104706589D01*
X175610068Y-104976842D01*
X175553000Y-105263740D01*
X175553000Y-105556260D01*
X175610068Y-105843158D01*
X175722010Y-106113411D01*
X175884525Y-106356632D01*
X176091368Y-106563475D01*
X176265760Y-106680000D01*
X176091368Y-106796525D01*
X175884525Y-107003368D01*
X175722010Y-107246589D01*
X175610068Y-107516842D01*
X175553000Y-107803740D01*
X175553000Y-108096260D01*
X175610068Y-108383158D01*
X175722010Y-108653411D01*
X175884525Y-108896632D01*
X176091368Y-109103475D01*
X176265760Y-109220000D01*
X176091368Y-109336525D01*
X175884525Y-109543368D01*
X175722010Y-109786589D01*
X175610068Y-110056842D01*
X175553000Y-110343740D01*
X175553000Y-110636260D01*
X175610068Y-110923158D01*
X175722010Y-111193411D01*
X175884525Y-111436632D01*
X176091368Y-111643475D01*
X176265760Y-111760000D01*
X176091368Y-111876525D01*
X176072893Y-111895000D01*
X174968132Y-111895000D01*
X174617000Y-111543869D01*
X174617000Y-99623752D01*
X174622491Y-99568000D01*
X174600577Y-99345501D01*
X174535676Y-99131553D01*
X174430284Y-98934377D01*
X174323989Y-98804856D01*
X174323987Y-98804854D01*
X174288449Y-98761551D01*
X174245146Y-98726013D01*
X172952243Y-97433110D01*
X175596524Y-97433110D01*
X175717845Y-97663000D01*
X176911000Y-97663000D01*
X176911000Y-96469186D01*
X177165000Y-96469186D01*
X177165000Y-97663000D01*
X178358155Y-97663000D01*
X178479476Y-97433110D01*
X178434825Y-97285901D01*
X178309641Y-97023080D01*
X178135588Y-96789731D01*
X177919355Y-96594822D01*
X177669252Y-96445843D01*
X177394891Y-96348519D01*
X177165000Y-96469186D01*
X176911000Y-96469186D01*
X176681109Y-96348519D01*
X176406748Y-96445843D01*
X176156645Y-96594822D01*
X175940412Y-96789731D01*
X175766359Y-97023080D01*
X175641175Y-97285901D01*
X175596524Y-97433110D01*
X172952243Y-97433110D01*
X170513996Y-94994865D01*
X170478449Y-94951551D01*
X170305623Y-94809716D01*
X170108447Y-94704324D01*
X169894499Y-94639423D01*
X169727752Y-94623000D01*
X169727751Y-94623000D01*
X169672000Y-94617509D01*
X169616249Y-94623000D01*
X168502578Y-94623000D01*
X170546579Y-92579000D01*
X175843344Y-92579000D01*
X175884525Y-92640632D01*
X176091368Y-92847475D01*
X176334589Y-93009990D01*
X176604842Y-93121932D01*
X176891740Y-93179000D01*
X177184260Y-93179000D01*
X177471158Y-93121932D01*
X177741411Y-93009990D01*
X177984632Y-92847475D01*
X178191475Y-92640632D01*
X178353990Y-92397411D01*
X178465932Y-92127158D01*
X178523000Y-91840260D01*
X178523000Y-91547740D01*
X178465932Y-91260842D01*
X178353990Y-90990589D01*
X178191475Y-90747368D01*
X177984632Y-90540525D01*
X177810240Y-90424000D01*
X177984632Y-90307475D01*
X178191475Y-90100632D01*
X178353990Y-89857411D01*
X178465932Y-89587158D01*
X178523000Y-89300260D01*
X178523000Y-89007740D01*
X178465932Y-88720842D01*
X178353990Y-88450589D01*
X178191475Y-88207368D01*
X177984632Y-88000525D01*
X177802466Y-87878805D01*
X177919355Y-87809178D01*
X178135588Y-87614269D01*
X178309641Y-87380920D01*
X178434825Y-87118099D01*
X178479476Y-86970890D01*
X178358155Y-86741000D01*
X177165000Y-86741000D01*
X177165000Y-86761000D01*
X176911000Y-86761000D01*
X176911000Y-86741000D01*
X175717845Y-86741000D01*
X175596524Y-86970890D01*
X175641175Y-87118099D01*
X175766359Y-87380920D01*
X175940412Y-87614269D01*
X176156645Y-87809178D01*
X176273534Y-87878805D01*
X176091368Y-88000525D01*
X175884525Y-88207368D01*
X175843344Y-88269000D01*
X171493469Y-88269000D01*
X171450000Y-88264719D01*
X171406531Y-88269000D01*
X171406523Y-88269000D01*
X171276510Y-88281805D01*
X171109686Y-88332411D01*
X170955941Y-88414589D01*
X170854953Y-88497468D01*
X170854951Y-88497470D01*
X170821183Y-88525183D01*
X170793470Y-88558951D01*
X168030953Y-91321469D01*
X168019423Y-91332999D01*
X167694950Y-91332999D01*
X167766825Y-91182099D01*
X167811476Y-91034890D01*
X167690155Y-90805000D01*
X166497000Y-90805000D01*
X166497000Y-90825000D01*
X166243000Y-90825000D01*
X166243000Y-90805000D01*
X165049845Y-90805000D01*
X164928524Y-91034890D01*
X164973175Y-91182099D01*
X165045050Y-91332999D01*
X161317466Y-91332999D01*
X161274000Y-91328718D01*
X161230534Y-91332999D01*
X161230524Y-91332999D01*
X161100511Y-91345804D01*
X160933688Y-91396410D01*
X160779942Y-91478588D01*
X160779940Y-91478589D01*
X160779941Y-91478589D01*
X160678954Y-91561467D01*
X160678952Y-91561469D01*
X160645184Y-91589182D01*
X160617471Y-91622950D01*
X158281956Y-93958466D01*
X158248183Y-93986183D01*
X158137589Y-94120942D01*
X158055411Y-94274688D01*
X158004805Y-94441511D01*
X157992000Y-94571524D01*
X157992000Y-94571531D01*
X157987719Y-94615000D01*
X157992000Y-94658469D01*
X157992001Y-102191521D01*
X157987719Y-102235000D01*
X158004805Y-102408490D01*
X158055412Y-102575313D01*
X158137590Y-102729059D01*
X158220468Y-102830046D01*
X158220471Y-102830049D01*
X158248184Y-102863817D01*
X158281951Y-102891529D01*
X159363470Y-103973049D01*
X159391183Y-104006817D01*
X159424951Y-104034530D01*
X159424953Y-104034532D01*
X159462271Y-104065158D01*
X159525941Y-104117411D01*
X159679687Y-104199589D01*
X159846510Y-104250195D01*
X159976523Y-104263000D01*
X159976533Y-104263000D01*
X160019999Y-104267281D01*
X160063465Y-104263000D01*
X165175344Y-104263000D01*
X165216525Y-104324632D01*
X165423368Y-104531475D01*
X165666589Y-104693990D01*
X165936842Y-104805932D01*
X165951281Y-104808804D01*
X165808692Y-104867866D01*
X165614606Y-104997550D01*
X165449550Y-105162606D01*
X165319866Y-105356692D01*
X165230539Y-105572348D01*
X165185000Y-105801288D01*
X165185000Y-106034712D01*
X165230539Y-106263652D01*
X165319866Y-106479308D01*
X165449550Y-106673394D01*
X165614606Y-106838450D01*
X165808692Y-106968134D01*
X166024348Y-107057461D01*
X166253288Y-107103000D01*
X166486712Y-107103000D01*
X166715652Y-107057461D01*
X166931308Y-106968134D01*
X167125394Y-106838450D01*
X167290450Y-106673394D01*
X167420134Y-106479308D01*
X167509461Y-106263652D01*
X167555000Y-106034712D01*
X167555000Y-105801288D01*
X167509461Y-105572348D01*
X167420134Y-105356692D01*
X167290450Y-105162606D01*
X167125394Y-104997550D01*
X166931308Y-104867866D01*
X166788719Y-104808804D01*
X166803158Y-104805932D01*
X167073411Y-104693990D01*
X167316632Y-104531475D01*
X167523475Y-104324632D01*
X167685990Y-104081411D01*
X167797932Y-103811158D01*
X167855000Y-103524260D01*
X167855000Y-103231740D01*
X167797932Y-102944842D01*
X167685990Y-102674589D01*
X167523475Y-102431368D01*
X167316632Y-102224525D01*
X167142240Y-102108000D01*
X167316632Y-101991475D01*
X167523475Y-101784632D01*
X167685990Y-101541411D01*
X167797932Y-101271158D01*
X167855000Y-100984260D01*
X167855000Y-100691740D01*
X167797932Y-100404842D01*
X167685990Y-100134589D01*
X167523475Y-99891368D01*
X167316632Y-99684525D01*
X167142240Y-99568000D01*
X167316632Y-99451475D01*
X167335107Y-99433000D01*
X168693869Y-99433000D01*
X170315000Y-101054132D01*
X170315001Y-113482239D01*
X170309509Y-113538000D01*
X170331423Y-113760498D01*
X170396324Y-113974446D01*
X170445384Y-114066230D01*
X170501717Y-114171623D01*
X170643552Y-114344449D01*
X170686860Y-114379991D01*
X172640009Y-116333141D01*
X172675551Y-116376449D01*
X172848377Y-116518284D01*
X173045553Y-116623676D01*
X173259501Y-116688577D01*
X173350820Y-116697571D01*
X173482000Y-116710491D01*
X173537751Y-116705000D01*
X175620317Y-116705000D01*
X175657463Y-116774494D01*
X175736815Y-116871185D01*
X175833506Y-116950537D01*
X175943820Y-117009502D01*
X176063518Y-117045812D01*
X176188000Y-117058072D01*
X177888000Y-117058072D01*
X178012482Y-117045812D01*
X178132180Y-117009502D01*
X178242494Y-116950537D01*
X178339185Y-116871185D01*
X178418537Y-116774494D01*
X178477502Y-116664180D01*
X178513812Y-116544482D01*
X178526072Y-116420000D01*
X178526072Y-114720000D01*
X178513812Y-114595518D01*
X178477502Y-114475820D01*
X178418537Y-114365506D01*
X178339185Y-114268815D01*
X178242494Y-114189463D01*
X178132180Y-114130498D01*
X178059620Y-114108487D01*
X178191475Y-113976632D01*
X178353990Y-113733411D01*
X178465932Y-113463158D01*
X178523000Y-113176260D01*
X178523000Y-112883740D01*
X178465932Y-112596842D01*
X178353990Y-112326589D01*
X178191475Y-112083368D01*
X177984632Y-111876525D01*
X177810240Y-111760000D01*
X177984632Y-111643475D01*
X178191475Y-111436632D01*
X178353990Y-111193411D01*
X178465932Y-110923158D01*
X178523000Y-110636260D01*
X178523000Y-110343740D01*
X178465932Y-110056842D01*
X178353990Y-109786589D01*
X178191475Y-109543368D01*
X177984632Y-109336525D01*
X177810240Y-109220000D01*
X177984632Y-109103475D01*
X178191475Y-108896632D01*
X178353990Y-108653411D01*
X178465932Y-108383158D01*
X178523000Y-108096260D01*
X178523000Y-107803740D01*
X178465932Y-107516842D01*
X178353990Y-107246589D01*
X178191475Y-107003368D01*
X177984632Y-106796525D01*
X177810240Y-106680000D01*
X177984632Y-106563475D01*
X178191475Y-106356632D01*
X178353990Y-106113411D01*
X178465932Y-105843158D01*
X178523000Y-105556260D01*
X178523000Y-105263740D01*
X178465932Y-104976842D01*
X178353990Y-104706589D01*
X178191475Y-104463368D01*
X177984632Y-104256525D01*
X177810240Y-104140000D01*
X177984632Y-104023475D01*
X178191475Y-103816632D01*
X178353990Y-103573411D01*
X178465932Y-103303158D01*
X178523000Y-103016260D01*
X178523000Y-102723740D01*
X178465932Y-102436842D01*
X178353990Y-102166589D01*
X178191475Y-101923368D01*
X177984632Y-101716525D01*
X177810240Y-101600000D01*
X177984632Y-101483475D01*
X178003107Y-101465000D01*
X179776249Y-101465000D01*
X179832000Y-101470491D01*
X179887751Y-101465000D01*
X179887752Y-101465000D01*
X180054499Y-101448577D01*
X180268447Y-101383676D01*
X180465623Y-101278284D01*
X180638449Y-101136449D01*
X180673996Y-101093135D01*
X183389146Y-98377987D01*
X183432449Y-98342449D01*
X183468928Y-98298000D01*
X183574284Y-98169623D01*
X183679676Y-97972447D01*
X183744577Y-97758499D01*
X183766491Y-97536000D01*
X183761000Y-97480248D01*
X183761000Y-86415743D01*
X183766490Y-86359999D01*
X183761000Y-86304255D01*
X183761000Y-86304248D01*
X183744577Y-86137501D01*
X183679676Y-85923553D01*
X183574284Y-85726377D01*
X183432449Y-85553551D01*
X183389141Y-85518009D01*
X181181996Y-83310865D01*
X181146449Y-83267551D01*
X180973623Y-83125716D01*
X180776447Y-83020324D01*
X180562499Y-82955423D01*
X180395752Y-82939000D01*
X180395751Y-82939000D01*
X180340000Y-82933509D01*
X180284249Y-82939000D01*
X178455683Y-82939000D01*
X178418537Y-82869506D01*
X178339185Y-82772815D01*
X178242494Y-82693463D01*
X178132180Y-82634498D01*
X178012482Y-82598188D01*
X177888000Y-82585928D01*
X176188000Y-82585928D01*
X176063518Y-82598188D01*
X175943820Y-82634498D01*
X175833506Y-82693463D01*
X175736815Y-82772815D01*
X175657463Y-82869506D01*
X175620317Y-82939000D01*
X173029751Y-82939000D01*
X172974000Y-82933509D01*
X172918248Y-82939000D01*
X172751501Y-82955423D01*
X172537553Y-83020324D01*
X172340377Y-83125716D01*
X172167551Y-83267551D01*
X172132009Y-83310859D01*
X168439869Y-87003000D01*
X167335107Y-87003000D01*
X167316632Y-86984525D01*
X167142240Y-86868000D01*
X167316632Y-86751475D01*
X167523475Y-86544632D01*
X167685990Y-86301411D01*
X167797932Y-86031158D01*
X167855000Y-85744260D01*
X167855000Y-85451740D01*
X167797932Y-85164842D01*
X167685990Y-84894589D01*
X167523475Y-84651368D01*
X167391620Y-84519513D01*
X167464180Y-84497502D01*
X167574494Y-84438537D01*
X167671185Y-84359185D01*
X167750537Y-84262494D01*
X167809502Y-84152180D01*
X167845812Y-84032482D01*
X167858072Y-83908000D01*
X167858072Y-82208000D01*
X167845812Y-82083518D01*
X167809502Y-81963820D01*
X167750537Y-81853506D01*
X167671185Y-81756815D01*
X167574494Y-81677463D01*
X167464180Y-81618498D01*
X167344482Y-81582188D01*
X167220000Y-81569928D01*
X165520000Y-81569928D01*
X165395518Y-81582188D01*
X165275820Y-81618498D01*
X165165506Y-81677463D01*
X165068815Y-81756815D01*
X164989463Y-81853506D01*
X164930498Y-81963820D01*
X164894188Y-82083518D01*
X164881928Y-82208000D01*
X164881928Y-83908000D01*
X164894188Y-84032482D01*
X164930498Y-84152180D01*
X164989463Y-84262494D01*
X165068815Y-84359185D01*
X165165506Y-84438537D01*
X165275820Y-84497502D01*
X165348380Y-84519513D01*
X165216525Y-84651368D01*
X165054010Y-84894589D01*
X164942068Y-85164842D01*
X164885000Y-85451740D01*
X164885000Y-85744260D01*
X164942068Y-86031158D01*
X165054010Y-86301411D01*
X165216525Y-86544632D01*
X165423368Y-86751475D01*
X165597760Y-86868000D01*
X165423368Y-86984525D01*
X165404893Y-87003000D01*
X153217743Y-87003000D01*
X153161999Y-86997510D01*
X153106255Y-87003000D01*
X153106248Y-87003000D01*
X152960493Y-87017356D01*
X152939500Y-87019423D01*
X152889705Y-87034529D01*
X152725553Y-87084324D01*
X152528377Y-87189716D01*
X152355551Y-87331551D01*
X152320011Y-87374857D01*
X148080860Y-91614009D01*
X148037552Y-91649551D01*
X147895717Y-91822377D01*
X147850318Y-91907313D01*
X147790324Y-92019554D01*
X147725423Y-92233502D01*
X147703509Y-92456000D01*
X147709001Y-92511762D01*
X147709000Y-117385867D01*
X146595869Y-118499000D01*
X142710132Y-118499000D01*
X139057000Y-114845869D01*
X139057000Y-110129683D01*
X139126494Y-110092537D01*
X139223185Y-110013185D01*
X139302537Y-109916494D01*
X139361502Y-109806180D01*
X139397812Y-109686482D01*
X139410072Y-109562000D01*
X139410072Y-107862000D01*
X139397812Y-107737518D01*
X139361502Y-107617820D01*
X139302537Y-107507506D01*
X139223185Y-107410815D01*
X139126494Y-107331463D01*
X139080728Y-107307000D01*
X140089001Y-107307000D01*
X140089000Y-112212248D01*
X140083509Y-112268000D01*
X140094986Y-112384525D01*
X140105423Y-112490498D01*
X140170324Y-112704446D01*
X140275716Y-112901623D01*
X140417551Y-113074449D01*
X140460865Y-113109996D01*
X141652008Y-114301140D01*
X141687551Y-114344449D01*
X141860377Y-114486284D01*
X142057553Y-114591676D01*
X142221705Y-114641471D01*
X142271500Y-114656577D01*
X142292493Y-114658644D01*
X142438248Y-114673000D01*
X142438255Y-114673000D01*
X142493999Y-114678490D01*
X142549743Y-114673000D01*
X144322893Y-114673000D01*
X144341368Y-114691475D01*
X144515760Y-114808000D01*
X144341368Y-114924525D01*
X144134525Y-115131368D01*
X143972010Y-115374589D01*
X143860068Y-115644842D01*
X143803000Y-115931740D01*
X143803000Y-116224260D01*
X143860068Y-116511158D01*
X143972010Y-116781411D01*
X144134525Y-117024632D01*
X144341368Y-117231475D01*
X144584589Y-117393990D01*
X144854842Y-117505932D01*
X145141740Y-117563000D01*
X145434260Y-117563000D01*
X145721158Y-117505932D01*
X145991411Y-117393990D01*
X146234632Y-117231475D01*
X146441475Y-117024632D01*
X146603990Y-116781411D01*
X146715932Y-116511158D01*
X146773000Y-116224260D01*
X146773000Y-115931740D01*
X146715932Y-115644842D01*
X146603990Y-115374589D01*
X146441475Y-115131368D01*
X146234632Y-114924525D01*
X146060240Y-114808000D01*
X146234632Y-114691475D01*
X146441475Y-114484632D01*
X146603990Y-114241411D01*
X146715932Y-113971158D01*
X146773000Y-113684260D01*
X146773000Y-113391740D01*
X146715932Y-113104842D01*
X146603990Y-112834589D01*
X146441475Y-112591368D01*
X146234632Y-112384525D01*
X145991411Y-112222010D01*
X145721158Y-112110068D01*
X145706719Y-112107196D01*
X145849308Y-112048134D01*
X146043394Y-111918450D01*
X146208450Y-111753394D01*
X146338134Y-111559308D01*
X146427461Y-111343652D01*
X146473000Y-111114712D01*
X146473000Y-110881288D01*
X146427461Y-110652348D01*
X146338134Y-110436692D01*
X146208450Y-110242606D01*
X146043394Y-110077550D01*
X145849308Y-109947866D01*
X145633652Y-109858539D01*
X145404712Y-109813000D01*
X145171288Y-109813000D01*
X144942348Y-109858539D01*
X144726692Y-109947866D01*
X144532606Y-110077550D01*
X144367550Y-110242606D01*
X144237866Y-110436692D01*
X144148539Y-110652348D01*
X144103000Y-110881288D01*
X144103000Y-111114712D01*
X144148539Y-111343652D01*
X144237866Y-111559308D01*
X144367550Y-111753394D01*
X144532606Y-111918450D01*
X144726692Y-112048134D01*
X144869281Y-112107196D01*
X144854842Y-112110068D01*
X144584589Y-112222010D01*
X144341368Y-112384525D01*
X144322893Y-112403000D01*
X142964132Y-112403000D01*
X142359000Y-111797869D01*
X142359000Y-106481741D01*
X142364490Y-106425999D01*
X142359000Y-106370257D01*
X142359000Y-106370248D01*
X142342577Y-106203501D01*
X142277676Y-105989553D01*
X142172284Y-105792377D01*
X142030449Y-105619551D01*
X141987135Y-105584004D01*
X141811996Y-105408865D01*
X141776449Y-105365551D01*
X141603623Y-105223716D01*
X141406447Y-105118324D01*
X141192499Y-105053423D01*
X141025752Y-105037000D01*
X141025751Y-105037000D01*
X140970000Y-105031509D01*
X140914249Y-105037000D01*
X138887107Y-105037000D01*
X138868632Y-105018525D01*
X138694240Y-104902000D01*
X138868632Y-104785475D01*
X139075475Y-104578632D01*
X139237990Y-104335411D01*
X139349932Y-104065158D01*
X139407000Y-103778260D01*
X139407000Y-103485740D01*
X139349932Y-103198842D01*
X139237990Y-102928589D01*
X139075475Y-102685368D01*
X138868632Y-102478525D01*
X138686466Y-102356805D01*
X138803355Y-102287178D01*
X139019588Y-102092269D01*
X139193641Y-101858920D01*
X139318825Y-101596099D01*
X139363476Y-101448890D01*
X139242155Y-101219000D01*
X138049000Y-101219000D01*
X138049000Y-101239000D01*
X137795000Y-101239000D01*
X137795000Y-101219000D01*
X136601845Y-101219000D01*
X136480524Y-101448890D01*
X136525175Y-101596099D01*
X136650359Y-101858920D01*
X136824412Y-102092269D01*
X137040645Y-102287178D01*
X137157534Y-102356805D01*
X136975368Y-102478525D01*
X136768525Y-102685368D01*
X136606010Y-102928589D01*
X136494068Y-103198842D01*
X136437000Y-103485740D01*
X136437000Y-103778260D01*
X136494068Y-104065158D01*
X136606010Y-104335411D01*
X136768525Y-104578632D01*
X136975368Y-104785475D01*
X137149760Y-104902000D01*
X136975368Y-105018525D01*
X136956893Y-105037000D01*
X136614132Y-105037000D01*
X136009000Y-104431869D01*
X136009000Y-101909751D01*
X136014491Y-101854000D01*
X136000328Y-101710194D01*
X135992577Y-101631501D01*
X135927676Y-101417553D01*
X135822284Y-101220377D01*
X135680449Y-101047551D01*
X135637140Y-101012008D01*
X135360242Y-100735110D01*
X136480524Y-100735110D01*
X136601845Y-100965000D01*
X137795000Y-100965000D01*
X137795000Y-99771186D01*
X138049000Y-99771186D01*
X138049000Y-100965000D01*
X139242155Y-100965000D01*
X139363476Y-100735110D01*
X139318825Y-100587901D01*
X139193641Y-100325080D01*
X139019588Y-100091731D01*
X138803355Y-99896822D01*
X138553252Y-99747843D01*
X138278891Y-99650519D01*
X138049000Y-99771186D01*
X137795000Y-99771186D01*
X137565109Y-99650519D01*
X137290748Y-99747843D01*
X137040645Y-99896822D01*
X136824412Y-100091731D01*
X136650359Y-100325080D01*
X136525175Y-100587901D01*
X136480524Y-100735110D01*
X135360242Y-100735110D01*
X134699996Y-100074864D01*
X134664449Y-100031551D01*
X134491623Y-99889716D01*
X134294447Y-99784324D01*
X134080499Y-99719423D01*
X133913752Y-99703000D01*
X133913751Y-99703000D01*
X133858000Y-99697509D01*
X133802249Y-99703000D01*
X133292288Y-99703000D01*
X133220359Y-99654939D01*
X132977405Y-99554304D01*
X132719486Y-99503000D01*
X132456514Y-99503000D01*
X132198595Y-99554304D01*
X131955641Y-99654939D01*
X131736987Y-99801038D01*
X131551038Y-99986987D01*
X131404939Y-100205641D01*
X131304304Y-100448595D01*
X131253000Y-100706514D01*
X131253000Y-100969486D01*
X131304304Y-101227405D01*
X131404939Y-101470359D01*
X131551038Y-101689013D01*
X131736987Y-101874962D01*
X131955641Y-102021061D01*
X132198595Y-102121696D01*
X132456514Y-102173000D01*
X132719486Y-102173000D01*
X132977405Y-102121696D01*
X133220359Y-102021061D01*
X133292288Y-101973000D01*
X133387869Y-101973000D01*
X133739001Y-102324132D01*
X133739000Y-104846248D01*
X133733509Y-104902000D01*
X133739000Y-104957751D01*
X133755423Y-105124498D01*
X133820324Y-105338446D01*
X133925716Y-105535623D01*
X134067551Y-105708449D01*
X134110865Y-105743996D01*
X135302008Y-106935140D01*
X135337551Y-106978449D01*
X135510377Y-107120284D01*
X135707553Y-107225676D01*
X135847036Y-107267988D01*
X135921500Y-107290577D01*
X135942493Y-107292644D01*
X136088248Y-107307000D01*
X136088255Y-107307000D01*
X136143999Y-107312490D01*
X136199743Y-107307000D01*
X136763272Y-107307000D01*
X136717506Y-107331463D01*
X136620815Y-107410815D01*
X136541463Y-107507506D01*
X136504317Y-107577000D01*
X133723000Y-107577000D01*
X133723000Y-106622288D01*
X133771061Y-106550359D01*
X133871696Y-106307405D01*
X133923000Y-106049486D01*
X133923000Y-105786514D01*
X133871696Y-105528595D01*
X133771061Y-105285641D01*
X133624962Y-105066987D01*
X133439013Y-104881038D01*
X133220359Y-104734939D01*
X132977405Y-104634304D01*
X132719486Y-104583000D01*
X132456514Y-104583000D01*
X132198595Y-104634304D01*
X131955641Y-104734939D01*
X131736987Y-104881038D01*
X131551038Y-105066987D01*
X131404939Y-105285641D01*
X131304304Y-105528595D01*
X131253000Y-105786514D01*
X131253000Y-106049486D01*
X131304304Y-106307405D01*
X131404939Y-106550359D01*
X131453000Y-106622288D01*
X131453001Y-108656239D01*
X131447509Y-108712000D01*
X131453000Y-108767752D01*
X131453001Y-111090760D01*
X131318013Y-111225748D01*
X131139082Y-111493537D01*
X131015832Y-111791088D01*
X130953000Y-112106967D01*
X127660000Y-112106967D01*
X127660000Y-98151740D01*
X143803000Y-98151740D01*
X143803000Y-98444260D01*
X143860068Y-98731158D01*
X143972010Y-99001411D01*
X144134525Y-99244632D01*
X144341368Y-99451475D01*
X144515760Y-99568000D01*
X144341368Y-99684525D01*
X144134525Y-99891368D01*
X143972010Y-100134589D01*
X143860068Y-100404842D01*
X143803000Y-100691740D01*
X143803000Y-100984260D01*
X143860068Y-101271158D01*
X143972010Y-101541411D01*
X144134525Y-101784632D01*
X144341368Y-101991475D01*
X144515760Y-102108000D01*
X144341368Y-102224525D01*
X144134525Y-102431368D01*
X143972010Y-102674589D01*
X143860068Y-102944842D01*
X143803000Y-103231740D01*
X143803000Y-103524260D01*
X143860068Y-103811158D01*
X143972010Y-104081411D01*
X144134525Y-104324632D01*
X144341368Y-104531475D01*
X144515760Y-104648000D01*
X144341368Y-104764525D01*
X144134525Y-104971368D01*
X143972010Y-105214589D01*
X143860068Y-105484842D01*
X143803000Y-105771740D01*
X143803000Y-106064260D01*
X143860068Y-106351158D01*
X143972010Y-106621411D01*
X144134525Y-106864632D01*
X144341368Y-107071475D01*
X144584589Y-107233990D01*
X144854842Y-107345932D01*
X144869281Y-107348804D01*
X144726692Y-107407866D01*
X144532606Y-107537550D01*
X144367550Y-107702606D01*
X144237866Y-107896692D01*
X144148539Y-108112348D01*
X144103000Y-108341288D01*
X144103000Y-108574712D01*
X144148539Y-108803652D01*
X144237866Y-109019308D01*
X144367550Y-109213394D01*
X144532606Y-109378450D01*
X144726692Y-109508134D01*
X144942348Y-109597461D01*
X145171288Y-109643000D01*
X145404712Y-109643000D01*
X145633652Y-109597461D01*
X145849308Y-109508134D01*
X146043394Y-109378450D01*
X146208450Y-109213394D01*
X146338134Y-109019308D01*
X146427461Y-108803652D01*
X146473000Y-108574712D01*
X146473000Y-108341288D01*
X146427461Y-108112348D01*
X146338134Y-107896692D01*
X146208450Y-107702606D01*
X146043394Y-107537550D01*
X145849308Y-107407866D01*
X145706719Y-107348804D01*
X145721158Y-107345932D01*
X145991411Y-107233990D01*
X146234632Y-107071475D01*
X146441475Y-106864632D01*
X146603990Y-106621411D01*
X146715932Y-106351158D01*
X146773000Y-106064260D01*
X146773000Y-105771740D01*
X146715932Y-105484842D01*
X146603990Y-105214589D01*
X146441475Y-104971368D01*
X146234632Y-104764525D01*
X146060240Y-104648000D01*
X146234632Y-104531475D01*
X146441475Y-104324632D01*
X146603990Y-104081411D01*
X146715932Y-103811158D01*
X146773000Y-103524260D01*
X146773000Y-103231740D01*
X146715932Y-102944842D01*
X146603990Y-102674589D01*
X146441475Y-102431368D01*
X146234632Y-102224525D01*
X146060240Y-102108000D01*
X146234632Y-101991475D01*
X146441475Y-101784632D01*
X146603990Y-101541411D01*
X146715932Y-101271158D01*
X146773000Y-100984260D01*
X146773000Y-100691740D01*
X146715932Y-100404842D01*
X146603990Y-100134589D01*
X146441475Y-99891368D01*
X146234632Y-99684525D01*
X146060240Y-99568000D01*
X146234632Y-99451475D01*
X146441475Y-99244632D01*
X146603990Y-99001411D01*
X146715932Y-98731158D01*
X146773000Y-98444260D01*
X146773000Y-98151740D01*
X146715932Y-97864842D01*
X146603990Y-97594589D01*
X146441475Y-97351368D01*
X146234632Y-97144525D01*
X145991411Y-96982010D01*
X145721158Y-96870068D01*
X145706719Y-96867196D01*
X145849308Y-96808134D01*
X146043394Y-96678450D01*
X146208450Y-96513394D01*
X146338134Y-96319308D01*
X146427461Y-96103652D01*
X146473000Y-95874712D01*
X146473000Y-95641288D01*
X146427461Y-95412348D01*
X146338134Y-95196692D01*
X146208450Y-95002606D01*
X146043394Y-94837550D01*
X145849308Y-94707866D01*
X145633652Y-94618539D01*
X145404712Y-94573000D01*
X145171288Y-94573000D01*
X144942348Y-94618539D01*
X144726692Y-94707866D01*
X144532606Y-94837550D01*
X144367550Y-95002606D01*
X144237866Y-95196692D01*
X144148539Y-95412348D01*
X144103000Y-95641288D01*
X144103000Y-95874712D01*
X144148539Y-96103652D01*
X144237866Y-96319308D01*
X144367550Y-96513394D01*
X144532606Y-96678450D01*
X144726692Y-96808134D01*
X144869281Y-96867196D01*
X144854842Y-96870068D01*
X144584589Y-96982010D01*
X144341368Y-97144525D01*
X144134525Y-97351368D01*
X143972010Y-97594589D01*
X143860068Y-97864842D01*
X143803000Y-98151740D01*
X127660000Y-98151740D01*
X127660000Y-90888524D01*
X131195000Y-90888524D01*
X131195000Y-91610477D01*
X131207805Y-91740490D01*
X131258412Y-91907313D01*
X131340590Y-92061059D01*
X131451184Y-92195817D01*
X131585942Y-92306411D01*
X131739688Y-92388589D01*
X131906511Y-92439195D01*
X132080000Y-92456282D01*
X132253490Y-92439195D01*
X132420313Y-92388589D01*
X132574059Y-92306411D01*
X132708817Y-92195817D01*
X132819411Y-92061059D01*
X132901589Y-91907313D01*
X132952195Y-91740490D01*
X132965000Y-91610477D01*
X132965000Y-90888523D01*
X132952195Y-90758510D01*
X132901589Y-90591687D01*
X132819411Y-90437941D01*
X132708817Y-90303183D01*
X132574058Y-90192589D01*
X132420312Y-90110411D01*
X132253489Y-90059805D01*
X132080000Y-90042718D01*
X131906510Y-90059805D01*
X131739687Y-90110411D01*
X131585941Y-90192589D01*
X131451183Y-90303183D01*
X131340589Y-90437942D01*
X131258411Y-90591688D01*
X131207805Y-90758511D01*
X131195000Y-90888524D01*
X127660000Y-90888524D01*
X127660000Y-88392000D01*
X130682718Y-88392000D01*
X130699805Y-88565490D01*
X130750411Y-88732313D01*
X130832589Y-88886059D01*
X130943183Y-89020817D01*
X131077941Y-89131411D01*
X131231687Y-89213589D01*
X131252191Y-89219809D01*
X131258411Y-89240313D01*
X131340590Y-89394059D01*
X131451184Y-89528817D01*
X131585942Y-89639411D01*
X131739688Y-89721589D01*
X131906511Y-89772195D01*
X132080000Y-89789282D01*
X132253490Y-89772195D01*
X132420313Y-89721589D01*
X132574059Y-89639411D01*
X132708817Y-89528817D01*
X132819411Y-89394059D01*
X132901589Y-89240313D01*
X132907809Y-89219809D01*
X132928313Y-89213589D01*
X133082059Y-89131411D01*
X133216817Y-89020817D01*
X133327411Y-88886059D01*
X133409589Y-88732313D01*
X133460195Y-88565490D01*
X133477282Y-88392000D01*
X133460195Y-88218510D01*
X133409589Y-88051687D01*
X133327411Y-87897941D01*
X133216817Y-87763183D01*
X133082059Y-87652589D01*
X132928313Y-87570411D01*
X132907809Y-87564191D01*
X132901589Y-87543687D01*
X132900688Y-87542000D01*
X133893928Y-87542000D01*
X133893928Y-89242000D01*
X133906188Y-89366482D01*
X133942498Y-89486180D01*
X134001463Y-89596494D01*
X134080815Y-89693185D01*
X134177506Y-89772537D01*
X134287820Y-89831502D01*
X134360380Y-89853513D01*
X134228525Y-89985368D01*
X134066010Y-90228589D01*
X133954068Y-90498842D01*
X133897000Y-90785740D01*
X133897000Y-91078260D01*
X133954068Y-91365158D01*
X134066010Y-91635411D01*
X134228525Y-91878632D01*
X134247000Y-91897107D01*
X134247001Y-94432239D01*
X134241509Y-94488000D01*
X134263423Y-94710498D01*
X134328324Y-94924446D01*
X134377384Y-95016230D01*
X134433717Y-95121623D01*
X134575552Y-95294449D01*
X134618860Y-95329991D01*
X136572009Y-97283141D01*
X136607551Y-97326449D01*
X136780377Y-97468284D01*
X136907066Y-97536000D01*
X136977553Y-97573676D01*
X137191501Y-97638577D01*
X137414000Y-97660491D01*
X137469751Y-97655000D01*
X139757712Y-97655000D01*
X139829641Y-97703061D01*
X140072595Y-97803696D01*
X140330514Y-97855000D01*
X140593486Y-97855000D01*
X140851405Y-97803696D01*
X141094359Y-97703061D01*
X141313013Y-97556962D01*
X141498962Y-97371013D01*
X141645061Y-97152359D01*
X141745696Y-96909405D01*
X141797000Y-96651486D01*
X141797000Y-96388514D01*
X141745696Y-96130595D01*
X141645061Y-95887641D01*
X141498962Y-95668987D01*
X141313013Y-95483038D01*
X141094359Y-95336939D01*
X140851405Y-95236304D01*
X140593486Y-95185000D01*
X140330514Y-95185000D01*
X140072595Y-95236304D01*
X139829641Y-95336939D01*
X139757712Y-95385000D01*
X137884132Y-95385000D01*
X136517000Y-94017869D01*
X136517000Y-91897107D01*
X136535475Y-91878632D01*
X136697990Y-91635411D01*
X136809932Y-91365158D01*
X136867000Y-91078260D01*
X136867000Y-90785740D01*
X136809932Y-90498842D01*
X136697990Y-90228589D01*
X136535475Y-89985368D01*
X136403620Y-89853513D01*
X136476180Y-89831502D01*
X136586494Y-89772537D01*
X136683185Y-89693185D01*
X136762537Y-89596494D01*
X136821502Y-89486180D01*
X136857812Y-89366482D01*
X136870072Y-89242000D01*
X136870072Y-88006514D01*
X139127000Y-88006514D01*
X139127000Y-88269486D01*
X139178304Y-88527405D01*
X139278939Y-88770359D01*
X139327000Y-88842288D01*
X139327001Y-90735711D01*
X139278939Y-90807641D01*
X139178304Y-91050595D01*
X139127000Y-91308514D01*
X139127000Y-91571486D01*
X139178304Y-91829405D01*
X139278939Y-92072359D01*
X139425038Y-92291013D01*
X139610987Y-92476962D01*
X139829641Y-92623061D01*
X140072595Y-92723696D01*
X140330514Y-92775000D01*
X140593486Y-92775000D01*
X140851405Y-92723696D01*
X141094359Y-92623061D01*
X141313013Y-92476962D01*
X141498962Y-92291013D01*
X141645061Y-92072359D01*
X141745696Y-91829405D01*
X141797000Y-91571486D01*
X141797000Y-91308514D01*
X141745696Y-91050595D01*
X141645061Y-90807641D01*
X141597000Y-90735712D01*
X141597000Y-89273000D01*
X144322893Y-89273000D01*
X144341368Y-89291475D01*
X144515760Y-89408000D01*
X144341368Y-89524525D01*
X144134525Y-89731368D01*
X143972010Y-89974589D01*
X143860068Y-90244842D01*
X143803000Y-90531740D01*
X143803000Y-90824260D01*
X143860068Y-91111158D01*
X143972010Y-91381411D01*
X144134525Y-91624632D01*
X144341368Y-91831475D01*
X144584589Y-91993990D01*
X144854842Y-92105932D01*
X144869281Y-92108804D01*
X144726692Y-92167866D01*
X144532606Y-92297550D01*
X144367550Y-92462606D01*
X144237866Y-92656692D01*
X144148539Y-92872348D01*
X144103000Y-93101288D01*
X144103000Y-93334712D01*
X144148539Y-93563652D01*
X144237866Y-93779308D01*
X144367550Y-93973394D01*
X144532606Y-94138450D01*
X144726692Y-94268134D01*
X144942348Y-94357461D01*
X145171288Y-94403000D01*
X145404712Y-94403000D01*
X145633652Y-94357461D01*
X145849308Y-94268134D01*
X146043394Y-94138450D01*
X146208450Y-93973394D01*
X146338134Y-93779308D01*
X146427461Y-93563652D01*
X146473000Y-93334712D01*
X146473000Y-93101288D01*
X146427461Y-92872348D01*
X146338134Y-92656692D01*
X146208450Y-92462606D01*
X146043394Y-92297550D01*
X145849308Y-92167866D01*
X145706719Y-92108804D01*
X145721158Y-92105932D01*
X145991411Y-91993990D01*
X146234632Y-91831475D01*
X146441475Y-91624632D01*
X146603990Y-91381411D01*
X146715932Y-91111158D01*
X146773000Y-90824260D01*
X146773000Y-90531740D01*
X146715932Y-90244842D01*
X146603990Y-89974589D01*
X146441475Y-89731368D01*
X146234632Y-89524525D01*
X146060240Y-89408000D01*
X146234632Y-89291475D01*
X146441475Y-89084632D01*
X146603990Y-88841411D01*
X146715932Y-88571158D01*
X146773000Y-88284260D01*
X146773000Y-87991740D01*
X146715932Y-87704842D01*
X146603990Y-87434589D01*
X146441475Y-87191368D01*
X146234632Y-86984525D01*
X146060240Y-86868000D01*
X146234632Y-86751475D01*
X146441475Y-86544632D01*
X146603990Y-86301411D01*
X146715932Y-86031158D01*
X146773000Y-85744260D01*
X146773000Y-85451740D01*
X146715932Y-85164842D01*
X146603990Y-84894589D01*
X146441475Y-84651368D01*
X146309620Y-84519513D01*
X146382180Y-84497502D01*
X146492494Y-84438537D01*
X146589185Y-84359185D01*
X146668537Y-84262494D01*
X146727502Y-84152180D01*
X146763812Y-84032482D01*
X146776072Y-83908000D01*
X146776072Y-82208000D01*
X146763812Y-82083518D01*
X146727502Y-81963820D01*
X146668537Y-81853506D01*
X146589185Y-81756815D01*
X146492494Y-81677463D01*
X146382180Y-81618498D01*
X146262482Y-81582188D01*
X146138000Y-81569928D01*
X144438000Y-81569928D01*
X144313518Y-81582188D01*
X144193820Y-81618498D01*
X144083506Y-81677463D01*
X143986815Y-81756815D01*
X143907463Y-81853506D01*
X143848498Y-81963820D01*
X143812188Y-82083518D01*
X143799928Y-82208000D01*
X143799928Y-83908000D01*
X143812188Y-84032482D01*
X143848498Y-84152180D01*
X143907463Y-84262494D01*
X143986815Y-84359185D01*
X144083506Y-84438537D01*
X144193820Y-84497502D01*
X144266380Y-84519513D01*
X144134525Y-84651368D01*
X143972010Y-84894589D01*
X143860068Y-85164842D01*
X143803000Y-85451740D01*
X143803000Y-85744260D01*
X143860068Y-86031158D01*
X143972010Y-86301411D01*
X144134525Y-86544632D01*
X144341368Y-86751475D01*
X144515760Y-86868000D01*
X144341368Y-86984525D01*
X144322893Y-87003000D01*
X141166288Y-87003000D01*
X141094359Y-86954939D01*
X140851405Y-86854304D01*
X140593486Y-86803000D01*
X140330514Y-86803000D01*
X140072595Y-86854304D01*
X139829641Y-86954939D01*
X139610987Y-87101038D01*
X139425038Y-87286987D01*
X139278939Y-87505641D01*
X139178304Y-87748595D01*
X139127000Y-88006514D01*
X136870072Y-88006514D01*
X136870072Y-87542000D01*
X136857812Y-87417518D01*
X136821502Y-87297820D01*
X136762537Y-87187506D01*
X136683185Y-87090815D01*
X136586494Y-87011463D01*
X136517000Y-86974317D01*
X136517000Y-85814131D01*
X138138132Y-84193000D01*
X139757712Y-84193000D01*
X139829641Y-84241061D01*
X140072595Y-84341696D01*
X140330514Y-84393000D01*
X140593486Y-84393000D01*
X140851405Y-84341696D01*
X141094359Y-84241061D01*
X141313013Y-84094962D01*
X141498962Y-83909013D01*
X141645061Y-83690359D01*
X141745696Y-83447405D01*
X141797000Y-83189486D01*
X141797000Y-82926514D01*
X141745696Y-82668595D01*
X141645061Y-82425641D01*
X141498962Y-82206987D01*
X141313013Y-82021038D01*
X141094359Y-81874939D01*
X140851405Y-81774304D01*
X140593486Y-81723000D01*
X140330514Y-81723000D01*
X140072595Y-81774304D01*
X139829641Y-81874939D01*
X139757712Y-81923000D01*
X137723743Y-81923000D01*
X137667999Y-81917510D01*
X137612255Y-81923000D01*
X137612248Y-81923000D01*
X137466493Y-81937356D01*
X137445500Y-81939423D01*
X137395705Y-81954529D01*
X137231553Y-82004324D01*
X137034377Y-82109716D01*
X136861551Y-82251551D01*
X136826009Y-82294859D01*
X134618860Y-84502009D01*
X134575552Y-84537551D01*
X134433717Y-84710377D01*
X134377384Y-84815770D01*
X134328324Y-84907554D01*
X134263423Y-85121502D01*
X134241509Y-85344000D01*
X134247001Y-85399761D01*
X134247000Y-86974317D01*
X134177506Y-87011463D01*
X134080815Y-87090815D01*
X134001463Y-87187506D01*
X133942498Y-87297820D01*
X133906188Y-87417518D01*
X133893928Y-87542000D01*
X132900688Y-87542000D01*
X132819411Y-87389941D01*
X132708817Y-87255183D01*
X132574058Y-87144589D01*
X132420312Y-87062411D01*
X132253489Y-87011805D01*
X132080000Y-86994718D01*
X131906510Y-87011805D01*
X131739687Y-87062411D01*
X131585941Y-87144589D01*
X131451183Y-87255183D01*
X131340589Y-87389942D01*
X131258411Y-87543688D01*
X131252191Y-87564191D01*
X131231687Y-87570411D01*
X131077941Y-87652589D01*
X130943183Y-87763183D01*
X130832589Y-87897941D01*
X130750411Y-88051687D01*
X130699805Y-88218510D01*
X130682718Y-88392000D01*
X127660000Y-88392000D01*
X127660000Y-79400000D01*
X184760001Y-79400000D01*
X184760000Y-123800000D01*
G37*
%TD.AperFunction*%
%TD*%
M02*
